<?xml version="1.0" standalone="no"?>
<!DOCTYPE svg PUBLIC "-//W3C//DTD SVG 20010904//EN"
 "http://www.w3.org/TR/2001/REC-SVG-20010904/DTD/svg10.dtd">
<svg version="1.0" xmlns="http://www.w3.org/2000/svg"
 width="410.000000pt" height="337.000000pt" viewBox="0 0 410.000000 337.000000"
 preserveAspectRatio="xMidYMid meet">

<g transform="translate(0.000000,337.000000) scale(0.100000,-0.100000)"
fill="#000000" stroke="none">
<path d="M996 3238 c-36 -46 -66 -86 -66 -89 0 -8 181 -152 184 -147 2 2 33
41 70 87 37 46 65 87 64 91 -5 12 -166 140 -177 140 -5 0 -39 -37 -75 -82z"/>
<path d="M1697 2835 c-32 -7 -60 -14 -62 -17 -4 -4 75 -977 90 -1100 l6 -48
-60 -38 c-128 -83 -306 -121 -601 -129 -180 -4 -217 -3 -303 15 -163 34 -268
108 -297 210 -22 82 -5 279 65 712 18 113 31 207 29 209 -5 5 -137 32 -140 28
-5 -5 -66 -393 -98 -624 -37 -261 -34 -357 14 -486 44 -119 176 -221 333 -262
157 -39 407 -43 635 -9 277 41 498 148 553 269 14 31 19 65 19 150 0 125 -21
480 -50 850 -11 138 -20 258 -20 268 0 20 -27 21 -113 2z"/>
<path d="M3465 2454 c-37 -47 -64 -89 -59 -93 33 -29 154 -121 162 -123 6 -2
40 35 76 81 54 68 64 87 54 97 -24 23 -153 124 -159 124 -3 0 -36 -39 -74 -86z"/>
<path d="M3815 2454 c-37 -47 -63 -89 -59 -93 50 -43 166 -132 168 -130 1 2
33 42 70 88 55 69 65 87 54 97 -25 25 -153 124 -160 124 -3 0 -36 -39 -73 -86z"/>
<path d="M130 2406 c-50 -9 -66 -15 -68 -30 -5 -23 25 -1368 33 -1511 14 -247
86 -385 238 -460 106 -52 207 -68 402 -63 149 4 164 6 220 31 33 16 71 39 85
51 l25 23 280 -123 c348 -154 374 -157 470 -58 53 54 77 121 95 268 23 178 -5
373 -71 497 -42 79 -132 162 -200 184 -76 26 -207 17 -274 -17 -100 -52 -157
-128 -289 -386 -129 -252 -114 -242 -361 -242 -190 0 -260 12 -335 58 -53 32
-94 90 -110 152 -11 41 -28 904 -30 1468 0 197 12 180 -110 158z m1482 -1399
c44 -24 81 -73 110 -148 30 -76 37 -259 14 -362 -28 -123 -3 -124 -305 8 -146
63 -267 118 -270 121 -8 8 85 186 142 271 27 41 67 86 89 100 68 45 149 49
220 10z"/>
<path d="M3753 1912 c-81 -15 -83 -16 -83 -44 0 -31 37 -544 44 -621 l5 -47
-48 -24 c-116 -59 -299 -86 -587 -86 l-201 0 -7 97 c-18 252 -107 499 -208
576 -67 51 -126 70 -218 71 -100 1 -149 -12 -214 -56 -97 -64 -193 -221 -237
-388 -18 -68 -23 -113 -23 -222 -1 -136 -1 -136 29 -179 72 -102 145 -124 400
-123 105 1 212 6 240 12 27 6 52 9 53 7 2 -2 -10 -33 -27 -68 -87 -183 -290
-359 -571 -497 -63 -32 -131 -63 -150 -70 -19 -7 -37 -15 -38 -16 -2 -1 23
-41 55 -88 l60 -85 75 33 c246 107 470 274 597 444 54 74 126 213 142 278 l11
42 246 5 c270 5 358 17 516 67 114 37 181 81 221 145 27 44 30 57 34 154 4
120 -19 690 -28 695 -3 1 -43 -4 -88 -12z m-1223 -293 c109 -55 169 -194 186
-430 l7 -97 -54 -12 c-80 -18 -343 -25 -423 -11 -109 19 -116 25 -116 90 2
185 79 385 175 450 62 42 155 46 225 10z"/>
</g>
</svg>
