<?xml version="1.0" standalone="no"?>
<!DOCTYPE svg PUBLIC "-//W3C//DTD SVG 20010904//EN"
 "http://www.w3.org/TR/2001/REC-SVG-20010904/DTD/svg10.dtd">
<svg version="1.0" xmlns="http://www.w3.org/2000/svg"
 width="630.000000pt" height="375.000000pt" viewBox="0 0 630.000000 375.000000"
 preserveAspectRatio="xMidYMid meet">

<g transform="translate(0.000000,375.000000) scale(0.100000,-0.100000)"
fill="#000000" stroke="none">
<path d="M2095 3519 c-36 -45 -65 -84 -65 -88 0 -4 19 -23 43 -41 23 -19 61
-49 84 -67 l41 -34 66 81 c36 45 66 85 66 89 0 5 -38 38 -85 74 l-84 67 -66
-81z"/>
<path d="M2760 3136 c-42 -9 -56 -16 -58 -31 -1 -11 18 -256 43 -545 l45 -525
-22 -19 c-170 -142 -776 -196 -1008 -90 -80 36 -115 67 -144 126 -42 85 -35
208 39 682 20 121 32 223 28 227 -7 6 -125 29 -130 25 -3 -2 -90 -576 -104
-680 -16 -123 -8 -276 19 -349 58 -161 195 -254 422 -288 107 -15 425 -6 544
16 289 53 472 163 496 297 10 50 -2 322 -30 708 -11 151 -23 317 -27 368 -7
105 -2 102 -113 78z"/>
<path d="M4835 2514 c-37 -47 -64 -89 -59 -93 33 -29 154 -121 162 -123 6 -2
40 35 76 81 54 68 64 87 54 97 -24 23 -153 124 -159 124 -3 0 -36 -39 -74 -86z"/>
<path d="M5185 2514 c-37 -47 -63 -89 -59 -93 50 -43 166 -132 168 -130 1 2
33 42 70 88 55 69 65 87 54 97 -25 25 -153 124 -160 124 -3 0 -36 -39 -73 -86z"/>
<path d="M5123 1972 c-81 -15 -83 -16 -83 -44 0 -31 37 -544 44 -621 l5 -47
-48 -24 c-116 -59 -299 -86 -587 -86 l-201 0 -7 97 c-18 252 -107 499 -208
576 -67 51 -126 70 -218 71 -100 1 -149 -12 -214 -56 -97 -64 -193 -221 -237
-388 -18 -68 -23 -113 -23 -222 -1 -136 -1 -136 29 -179 72 -102 145 -124 400
-123 105 1 212 6 240 12 27 6 52 9 53 7 2 -2 -10 -33 -27 -68 -87 -183 -290
-359 -571 -497 -63 -32 -131 -63 -150 -70 -19 -7 -37 -15 -38 -16 -2 -1 23
-41 55 -88 l60 -85 75 33 c246 107 470 274 597 444 54 74 126 213 142 278 l11
42 246 5 c270 5 358 17 516 67 114 37 181 81 221 145 27 44 30 57 34 154 4
120 -19 690 -28 695 -3 1 -43 -4 -88 -12z m-1223 -293 c109 -55 169 -194 186
-430 l7 -97 -54 -12 c-80 -18 -343 -25 -423 -11 -109 19 -116 25 -116 90 2
185 79 385 175 450 62 42 155 46 225 10z"/>
<path d="M1430 1600 c2 -298 19 -696 35 -758 36 -147 104 -241 218 -297 106
-52 207 -68 402 -63 149 4 164 6 220 31 33 16 71 39 85 51 l25 23 280 -123
c348 -154 374 -157 470 -58 53 54 77 121 95 268 23 178 -5 373 -71 497 -42 79
-132 162 -200 184 -76 26 -207 17 -274 -17 -100 -52 -157 -128 -289 -386 -132
-257 -112 -245 -386 -240 -172 4 -202 7 -250 26 -73 29 -120 69 -149 128 -30
60 -39 195 -40 594 l-1 265 -85 0 -85 0 0 -125z m1532 -453 c44 -24 81 -73
110 -148 30 -76 37 -259 14 -362 -28 -123 -3 -124 -305 8 -146 63 -267 118
-270 121 -8 8 85 186 142 271 27 41 67 86 89 100 68 45 149 49 220 10z"/>
</g>
</svg>
