<svg version="1.1" id="Layer_1" xmlns="http://www.w3.org/2000/svg" xmlns:xlink="http://www.w3.org/1999/xlink" x="0px" y="0px"
	 width="100%" viewBox="0 0 512 512" enable-background="new 0 0 512 512" xml:space="preserve">
<path fill="#662814" opacity="1.000000" stroke="none"
	d="
M357.887207,283.089294 
	C361.091858,290.717316 364.144409,298.413666 367.534851,305.958221 
	C373.387878,318.982605 379.134766,332.070038 385.498016,344.846252 
	C395.674957,365.279724 408.664886,383.779266 424.033844,400.757721 
	C443.631073,422.407166 466.210785,439.980499 491.998230,453.549774 
	C493.403046,454.288971 494.650421,455.327423 495.761322,456.714569 
	C446.282623,451.815857 399.781067,437.211609 355.267700,414.778229 
	C355.794098,415.636627 356.204132,416.598846 356.863800,417.338318 
	C374.423706,437.022034 394.873718,452.885468 419.107727,463.506744 
	C436.719177,471.225555 454.534760,478.478363 472.255188,485.948883 
	C480.143585,489.274445 488.021698,492.624542 495.797546,496.346893 
	C457.439728,497.733795 419.266663,497.730255 381.323334,487.563354 
	C374.274109,482.993774 367.777130,478.705414 361.162811,474.606293 
	C331.955536,456.505676 304.855011,435.624695 279.813599,412.148651 
	C269.384033,402.370972 259.195984,392.192871 250.012527,381.260681 
	C234.429016,362.709778 218.986313,343.951019 204.848221,324.298492 
	C187.728729,300.501678 173.724731,274.741516 161.475266,248.050964 
	C149.923370,222.880295 139.840546,197.129547 133.063477,170.307007 
	C127.454819,148.108795 122.437325,125.652420 119.079590,103.025261 
	C115.800591,80.928680 114.955750,58.470882 113.042336,36.171658 
	C131.738892,26.388519 151.535034,19.920271 172.555618,18.124136 
	C185.447937,17.022535 198.517197,16.430132 211.408340,17.219727 
	C234.367767,18.626015 256.470154,24.403305 277.714172,33.339817 
	C296.967560,41.438969 314.632172,52.202671 330.702820,65.467659 
	C349.944244,81.349869 365.732422,100.236374 378.384674,121.768066 
	C389.570343,140.803818 397.659210,161.072891 402.671112,182.533661 
	C408.917786,209.281738 414.053528,236.319504 421.201324,262.818848 
	C429.263123,292.706940 438.413696,322.342712 448.302277,351.679901 
	C453.558044,367.272583 463.003510,381.030243 473.991608,393.410004 
	C481.004822,401.311432 488.527405,408.760712 495.842133,417.493561 
	C489.565460,416.163300 483.193695,415.172028 477.028931,413.442810 
	C453.070007,406.722260 432.302094,394.195862 416.333252,375.320709 
	C406.249756,363.402069 398.369415,349.532806 390.167633,336.130463 
	C379.447266,318.612427 369.385834,300.691193 358.613831,282.481659 
	C357.172974,279.886688 356.159241,277.753479 355.145477,275.620270 
	C354.778534,275.844269 354.411560,276.068268 354.044586,276.292297 
	C355.325470,278.557953 356.606354,280.823639 357.887207,283.089294 
M205.813583,256.718079 
	C204.576706,254.550751 203.222397,252.441254 202.121735,250.206833 
	C194.172134,234.068497 186.290878,217.896484 178.335480,201.761032 
	C177.446793,199.958588 176.918152,197.188766 173.784851,198.676376 
	C169.914169,200.514069 166.099686,202.470139 162.128326,204.440857 
	C162.593384,205.745743 162.789795,206.547699 163.149139,207.268402 
	C172.213989,225.448151 180.949417,243.802795 190.450775,261.751953 
	C207.537781,294.031219 229.696365,322.680420 255.285477,348.600830 
	C271.645935,365.173126 289.298523,380.405243 308.541138,393.599060 
	C319.650970,401.216583 331.222961,408.167999 342.721619,415.198975 
	C343.967163,415.960602 347.236633,415.874512 347.646912,415.127228 
	C349.790161,411.223511 351.330444,406.985992 352.975586,402.823181 
	C353.030212,402.685028 351.979797,402.072052 351.413116,401.732727 
	C347.845154,399.596100 344.258820,397.490051 340.696320,395.344421 
	C332.867889,390.629547 325.219086,386.066803 320.062073,377.806915 
	C299.005676,344.081146 282.686249,308.330383 273.037384,269.722412 
	C267.676880,248.273575 263.151764,226.616425 258.158386,205.074417 
	C257.770660,203.401657 256.577209,200.503296 255.892868,200.542206 
	C251.645538,200.783676 247.278168,201.268936 243.331558,202.713776 
	C242.397324,203.055786 242.346527,207.500458 242.862091,209.843918 
	C246.720917,227.383484 250.875931,244.857544 254.839203,262.374512 
	C262.187073,294.850739 273.469208,325.876862 288.883240,355.398041 
	C289.183502,355.973083 289.198761,356.696930 289.618286,358.549194 
	C284.488647,354.009491 280.028351,350.551086 276.147736,346.532867 
	C265.982147,336.006805 255.767700,325.501160 246.125290,314.502899 
	C230.731277,296.944275 217.571396,277.747131 205.813583,256.718079 
M178.112961,131.362595 
	C178.771454,128.104538 179.425003,124.845474 180.089325,121.588608 
	C182.280487,110.846077 188.375702,103.274834 198.501266,99.012810 
	C200.084808,98.346268 201.737900,97.844879 204.754929,96.769531 
	C183.925568,92.002907 179.771332,76.422272 176.991287,59.429493 
	C174.182007,76.492760 169.959534,92.007126 150.237030,97.013008 
	C170.032837,101.973068 174.213043,117.520454 177.345108,134.202194 
	C177.566391,133.503937 177.787674,132.805695 178.112961,131.362595 
z"/>
<path fill="#EFC5A5" opacity="1.000000" stroke="none" 
	d="
M317.820953,478.022675 
	C318.960663,486.773651 320.100403,495.524597 321.290100,504.659332 
	C273.168121,504.659332 225.439438,504.659332 176.999619,504.659332 
	C176.999619,494.961975 177.286621,485.036896 176.934540,475.134491 
	C176.359680,458.966339 174.394089,443.052765 166.807663,428.336975 
	C160.976151,417.025299 159.925659,416.612457 147.641464,419.039734 
	C139.022110,420.742798 130.274628,421.856323 121.547813,422.938599 
	C114.229744,423.846191 106.865845,424.791443 99.509857,424.902893 
	C83.305878,425.148376 69.964355,411.298859 67.043358,395.955902 
	C65.069550,385.588165 63.263912,375.188171 61.416103,364.796722 
	C59.821152,355.827301 58.272869,346.849579 56.629848,337.451630 
	C52.536198,336.369171 48.106667,334.906372 43.562943,334.048187 
	C26.312031,330.790100 20.818930,313.480316 27.283794,299.547485 
	C33.501320,286.147766 40.410252,273.068848 47.368752,259.327332 
	C50.304081,253.797821 53.063786,248.869827 55.369091,243.737717 
	C56.148712,242.002075 56.386532,239.564713 55.838123,237.762680 
	C51.017715,221.923431 48.502144,205.777542 49.025177,189.220505 
	C49.638210,169.814575 56.167736,152.661865 69.295242,138.248917 
	C70.009583,139.368469 70.571495,140.214722 70.898445,141.143661 
	C83.666649,177.422073 96.421440,213.705231 109.160324,249.993942 
	C118.178307,275.683105 129.360992,300.400024 143.524261,323.645538 
	C165.307800,359.397797 191.781219,391.188629 223.746506,418.459229 
	C249.871613,440.747375 278.310364,459.295898 309.053131,474.421570 
	C311.537537,475.643951 314.381012,476.136627 317.057648,476.968384 
	C317.057648,476.968353 317.001892,476.995026 317.085693,477.186157 
	C317.340210,477.639252 317.557373,477.854401 317.820953,478.022675 
z"/>
<path fill="#542210" opacity="1.000000" stroke="none" 
	d="
M69.033218,138.014191 
	C56.167736,152.661865 49.638210,169.814575 49.025177,189.220505 
	C48.502144,205.777542 51.017715,221.923431 55.838123,237.762680 
	C56.386532,239.564713 56.148712,242.002075 55.369091,243.737717 
	C53.063786,248.869827 50.304081,253.797821 47.415672,258.963135 
	C36.857071,250.605713 29.093527,240.176132 23.584949,228.092468 
	C19.559566,219.262344 17.318579,210.000626 16.956463,200.225632 
	C16.161507,178.766403 18.894976,157.845078 25.738777,137.471802 
	C35.922752,107.155167 53.217388,81.395027 77.287849,60.618526 
	C87.991943,51.379246 100.624146,44.373737 112.711761,36.262993 
	C114.955750,58.470882 115.800591,80.928680 119.079590,103.025261 
	C122.437325,125.652420 127.454819,148.108795 133.063477,170.307007 
	C139.840546,197.129547 149.923370,222.880295 161.475266,248.050964 
	C173.724731,274.741516 187.728729,300.501678 204.848221,324.298492 
	C218.986313,343.951019 234.429016,362.709778 250.012527,381.260681 
	C259.195984,392.192871 269.384033,402.370972 279.813599,412.148651 
	C304.855011,435.624695 331.955536,456.505676 361.162811,474.606293 
	C367.777130,478.705414 374.274109,482.993774 380.925964,487.505341 
	C358.831360,482.891571 337.397003,475.691620 316.085907,465.964844 
	C313.257843,464.493744 311.060883,463.313812 308.816925,462.231506 
	C222.384155,420.545197 160.462784,355.506409 124.771889,266.441864 
	C110.116806,229.870956 98.163246,192.217438 84.983505,155.055420 
	C82.166573,147.112686 79.361275,139.165802 76.240891,130.345337 
	C73.478058,133.284958 71.255638,135.649567 69.033218,138.014191 
z"/>
<path fill="#DEA984" opacity="1.000000" stroke="none" 
	d="
M69.295235,138.248917 
	C71.255638,135.649567 73.478058,133.284958 76.240891,130.345337 
	C79.361275,139.165802 82.166573,147.112686 84.983505,155.055420 
	C98.163246,192.217438 110.116806,229.870956 124.771889,266.441864 
	C160.462784,355.506409 222.384155,420.545197 308.816925,462.231506 
	C311.060883,463.313812 313.257843,464.493744 315.766296,465.821259 
	C316.374390,469.375092 316.692871,472.735809 317.034485,476.532440 
	C314.381012,476.136627 311.537537,475.643951 309.053131,474.421570 
	C278.310364,459.295898 249.871613,440.747375 223.746506,418.459229 
	C191.781219,391.188629 165.307800,359.397797 143.524261,323.645538 
	C129.360992,300.400024 118.178307,275.683105 109.160324,249.993942 
	C96.421440,213.705231 83.666649,177.422073 70.898445,141.143661 
	C70.571495,140.214722 70.009583,139.368469 69.295235,138.248917 
z"/>
<path fill="#C9368A" opacity="1.000000" stroke="none" 
	d="
M424.279175,63.231777 
	C416.431671,68.205093 413.729462,75.797676 412.024811,83.941582 
	C411.129303,88.219917 410.392517,92.531487 408.686066,96.964355 
	C407.803680,93.191124 406.452484,89.458504 406.121429,85.637497 
	C404.802490,70.414978 393.846344,58.387390 377.808319,57.767036 
	C377.600830,57.759014 377.409180,57.341927 377.204163,57.108990 
	C381.547882,55.713806 386.036682,54.699371 390.158905,52.862450 
	C399.888000,48.527065 404.067139,40.065342 405.983276,30.159552 
	C406.817505,25.846910 407.585938,21.521534 409.351044,17.023306 
	C410.232483,21.096468 411.274445,25.142693 411.963531,29.248138 
	C413.633881,39.200012 417.431885,47.826176 427.038147,52.434574 
	C431.319153,54.488308 436.026550,55.653191 439.536102,56.872551 
	C435.270355,58.608498 429.908020,60.790699 424.279175,63.231777 
z"/>
<path fill="#C9368A" opacity="1.000000" stroke="none" 
	d="
M464.061432,255.664398 
	C461.879791,246.146286 461.950867,236.465271 455.417999,228.625244 
	C450.178772,222.337784 443.819458,218.848862 435.830170,217.996521 
	C435.172455,217.926361 434.502350,217.929840 433.857605,217.801041 
	C433.592957,217.748199 433.380280,217.435181 432.705017,216.879013 
	C436.435425,216.005051 439.886230,215.584656 443.042328,214.387390 
	C454.354828,210.095947 460.127594,201.402939 462.020508,189.738968 
	C462.707916,185.502899 463.672302,181.311798 465.369781,177.111740 
	C466.554718,182.386322 468.112549,187.609344 468.850250,192.945740 
	C470.611206,205.684372 483.378632,216.422348 495.876373,216.123627 
	C496.163239,216.116760 496.457184,216.406845 497.193817,216.790985 
	C496.394348,217.275711 495.848816,217.872498 495.251617,217.929688 
	C480.129303,219.377975 470.430878,228.677673 467.995728,244.070587 
	C467.384369,247.935318 466.663269,251.784363 465.867859,255.614700 
	C465.812317,255.882278 464.717133,255.933990 464.061432,255.664398 
z"/>
<path fill="#DEA984" opacity="1.000000" stroke="none" 
	d="
M317.868103,477.754486 
	C317.557373,477.854401 317.340210,477.639252 317.098206,477.157898 
	C317.323029,477.121124 317.619171,477.303711 317.868103,477.754486 
z"/>
<path fill="#87321B" opacity="1.000000" stroke="none" 
	d="
M205.985962,257.041748 
	C217.571396,277.747131 230.731277,296.944275 246.125290,314.502899 
	C255.767700,325.501160 265.982147,336.006805 276.147736,346.532867 
	C280.028351,350.551086 284.488647,354.009491 289.618286,358.549194 
	C289.198761,356.696930 289.183502,355.973083 288.883240,355.398041 
	C273.469208,325.876862 262.187073,294.850739 254.839203,262.374512 
	C250.875931,244.857544 246.720917,227.383484 242.862091,209.843918 
	C242.346527,207.500458 242.397324,203.055786 243.331558,202.713776 
	C247.278168,201.268936 251.645538,200.783676 255.892868,200.542206 
	C256.577209,200.503296 257.770660,203.401657 258.158386,205.074417 
	C263.151764,226.616425 267.676880,248.273575 273.037384,269.722412 
	C282.686249,308.330383 299.005676,344.081146 320.062073,377.806915 
	C325.219086,386.066803 332.867889,390.629547 340.696320,395.344421 
	C344.258820,397.490051 347.845154,399.596100 351.413116,401.732727 
	C351.979797,402.072052 353.030212,402.685028 352.975586,402.823181 
	C351.330444,406.985992 349.790161,411.223511 347.646912,415.127228 
	C347.236633,415.874512 343.967163,415.960602 342.721619,415.198975 
	C331.222961,408.167999 319.650970,401.216583 308.541138,393.599060 
	C289.298523,380.405243 271.645935,365.173126 255.285477,348.600830 
	C229.696365,322.680420 207.537781,294.031219 190.450775,261.751953 
	C180.949417,243.802795 172.213989,225.448151 163.149139,207.268402 
	C162.789795,206.547699 162.593384,205.745743 162.128326,204.440857 
	C166.099686,202.470139 169.914169,200.514069 173.784851,198.676376 
	C176.918152,197.188766 177.446793,199.958588 178.335480,201.761032 
	C186.290878,217.896484 194.172134,234.068497 202.121735,250.206833 
	C203.222397,252.441254 204.576706,254.550751 205.985962,257.041748 
z"/>
<path fill="#C63687" opacity="1.000000" stroke="none" 
	d="
M178.060944,131.735016 
	C177.787674,132.805695 177.566391,133.503937 177.345108,134.202194 
	C174.213043,117.520454 170.032837,101.973068 150.237030,97.013008 
	C169.959534,92.007126 174.182007,76.492760 176.991287,59.429493 
	C179.771332,76.422272 183.925568,92.002907 204.754929,96.769531 
	C201.737900,97.844879 200.084808,98.346268 198.501266,99.012810 
	C188.375702,103.274834 182.280487,110.846077 180.089325,121.588608 
	C179.425003,124.845474 178.771454,128.104538 178.060944,131.735016 
z"/>
<path fill="#000000" opacity="1.000000" stroke="none" 
	d="
M358.019562,282.983032 
	C356.606354,280.823639 355.325470,278.557953 354.044586,276.292297 
	C354.411560,276.068268 354.778534,275.844269 355.145477,275.620270 
	C356.159241,277.753479 357.172974,279.886688 358.303650,282.344604 
	C358.420532,282.669281 358.151917,282.876801 358.019562,282.983032 
z"/>
</svg>