<svg version="1.1" id="Layer_1" xmlns="http://www.w3.org/2000/svg" xmlns:xlink="http://www.w3.org/1999/xlink" x="0px" y="0px"
	 width="100%" viewBox="0 0 512 512" enable-background="new 0 0 512 512" xml:space="preserve">
<path fill="#E42A3C" opacity="1.000000" stroke="none"
	/>
<path fill="#7A4922" opacity="1.000000" stroke="none"
	d="
M204.568939,151.422058 
	C203.774536,151.586426 202.760376,152.152191 202.218338,151.855499 
	C192.706390,146.648575 181.621613,144.337891 173.684418,136.216309 
	C166.352112,128.713669 163.895401,119.048782 162.166321,109.310623 
	C159.340240,93.393982 161.950821,78.023285 169.206085,63.619705 
	C177.989487,46.182396 191.830353,34.308052 209.953339,27.026503 
	C224.063293,21.357317 238.611420,18.798838 253.650772,20.098904 
	C272.715179,21.746910 289.617096,28.826473 304.649811,40.954575 
	C317.010773,50.927151 324.467926,64.182632 331.881348,77.642212 
	C339.130463,90.803604 345.986542,104.205360 353.786774,117.032356 
	C360.956787,128.822906 371.640686,137.326050 383.252502,144.590240 
	C406.469910,159.114670 421.385284,179.751160 426.529663,206.544495 
	C431.285828,231.315933 427.166870,254.938293 413.108521,276.372345 
	C411.937286,278.158020 410.796326,279.963562 409.302429,281.496429 
	C409.488190,272.667664 411.448395,263.900085 410.275635,255.573853 
	C406.330170,227.562057 387.639160,208.866226 359.072327,202.007507 
	C345.571747,198.766113 331.547699,197.160004 318.840942,190.057037 
	C313.734741,184.529343 308.871124,179.262802 303.987732,173.627945 
	C302.764648,170.153931 301.561371,167.048233 300.261047,163.528595 
	C300.385925,151.760895 300.607910,140.407135 300.840851,128.491547 
	C264.212280,128.096268 232.161530,113.985283 204.799316,88.694252 
	C196.478241,102.294571 193.079559,116.302559 196.206406,130.235657 
	C197.848953,137.554749 201.709808,144.376007 204.568939,151.422058 
z"/>
<path fill="#F6BB92" opacity="1.000000" stroke="none"
	d="
M405.078156,294.073944 
	C402.387665,302.839325 399.732635,311.615814 396.999023,320.367706 
	C392.020752,336.306000 386.995789,352.229706 381.678284,368.814636 
	C380.626526,371.316864 379.769592,373.126556 379.166168,375.017151 
	C375.171661,387.531982 371.333710,400.097595 367.250885,412.583252 
	C360.382355,433.587799 339.278503,448.932953 317.670593,448.269135 
	C305.876434,447.906799 295.749481,443.570770 285.334076,439.202179 
	C276.635529,435.553680 267.775085,432.291290 258.880157,428.544556 
	C254.776703,426.283325 250.839325,424.199249 246.772217,422.410126 
	C223.494293,412.170074 200.252533,401.843048 176.860992,391.867981 
	C163.820541,386.307037 151.706970,379.708130 143.443268,367.677032 
	C140.550400,363.465393 137.731339,359.203033 134.878571,354.963837 
	C131.161346,348.417603 127.563766,341.799774 123.697296,335.342896 
	C118.626938,326.875610 120.315849,321.419830 129.604813,318.057068 
	C133.330933,316.708191 137.291031,316.005615 141.760818,315.336548 
	C156.415939,316.747467 163.529236,328.427032 173.445953,336.401459 
	C178.015717,331.964417 183.165176,327.413330 189.327240,330.852295 
	C194.419647,333.694275 198.303207,338.702332 202.842667,342.860779 
	C202.883636,342.119476 202.989426,341.332886 202.961227,340.551147 
	C202.240326,320.566528 196.808563,301.940796 187.129211,284.452393 
	C186.002274,282.416229 185.654541,279.401611 186.159119,277.107544 
	C188.014145,268.673737 190.380646,260.352417 192.943817,251.996979 
	C200.159073,253.249496 206.976151,254.546219 213.813095,255.728104 
	C232.565414,258.969757 240.527573,272.349854 243.912048,289.180664 
	C238.550781,295.104309 232.781479,300.303284 228.286255,306.436127 
	C220.237808,317.416595 212.932648,328.943481 205.375870,340.281311 
	C203.961823,342.402863 203.256149,344.453491 206.646820,345.736664 
	C223.450500,352.096039 240.218033,358.550934 257.254089,365.215332 
	C267.962311,369.386292 278.414673,373.314117 289.137177,377.460388 
	C294.945496,379.844025 300.539276,381.879700 306.000885,384.223389 
	C309.233185,385.610443 310.774902,384.766571 311.816040,381.486755 
	C315.164429,370.938629 318.706879,360.452057 322.382324,349.662903 
	C328.296692,332.388214 334.168610,315.444946 339.594513,298.360046 
	C340.966675,294.039307 343.021210,292.786255 347.369293,292.913116 
	C366.600525,293.474121 385.841003,293.716309 405.078156,294.073944 
z"/>
<path fill="#FF8AA0" opacity="1.000000" stroke="none"
	d="
M244.078110,288.876801 
	C240.527573,272.349854 232.565414,258.969757 213.813095,255.728104 
	C206.976151,254.546219 200.159073,253.249496 192.502136,251.903305 
	C182.674591,250.264923 173.730103,249.914261 164.936264,252.980255 
	C166.917419,244.480255 172.018372,237.965805 178.048660,231.954819 
	C188.093597,221.941986 201.196823,219.130859 214.257156,215.854538 
	C227.192749,212.609558 239.951126,208.659332 252.797699,205.055771 
	C253.735580,204.792694 254.758560,204.833008 256.251190,204.550140 
	C280.166534,219.129929 305.580292,210.411728 319.083527,190.318192 
	C331.547699,197.160004 345.571747,198.766113 359.072327,202.007507 
	C387.639160,208.866226 406.330170,227.562057 410.275635,255.573853 
	C411.448395,263.900085 409.488190,272.667664 408.991211,281.648987 
	C407.931030,285.947266 406.843201,289.829590 405.416748,293.892944 
	C385.841003,293.716309 366.600525,293.474121 347.369293,292.913116 
	C343.021210,292.786255 340.966675,294.039307 339.594513,298.360046 
	C334.168610,315.444946 328.296692,332.388214 322.302307,349.286835 
	C317.173615,330.692200 306.595032,316.544983 289.767365,306.709290 
	C278.684967,302.021454 267.832825,297.585388 256.624695,293.045654 
	C252.205200,291.586945 248.141647,290.231873 244.078110,288.876801 
z"/>
<path fill="#FF8AA0" opacity="1.000000" stroke="none" 
	d="
M258.986328,428.857910 
	C267.775085,432.291290 276.635529,435.553680 285.334076,439.202179 
	C295.749481,443.570770 305.876434,447.906799 317.670593,448.269135 
	C339.278503,448.932953 360.382355,433.587799 367.250885,412.583252 
	C371.333710,400.097595 375.171661,387.531982 379.166168,375.017151 
	C379.769592,373.126556 380.626526,371.316864 381.598267,369.201843 
	C382.220215,379.844238 382.570435,390.756165 383.009430,401.664551 
	C383.640198,417.338989 384.252106,433.015045 385.028961,448.682587 
	C385.687927,461.972748 386.569244,475.251862 387.345245,488.417908 
	C328.248260,488.417908 269.931732,488.417908 210.970337,488.417908 
	C211.337997,481.466370 211.527954,475.108185 212.053940,468.777954 
	C212.499710,463.413025 213.472504,458.092957 213.957932,452.730042 
	C214.461945,447.161621 214.660736,441.565613 215.270813,435.284546 
	C225.686005,433.039673 235.823395,431.491943 246.399399,429.961121 
	C250.887451,429.604645 254.936890,429.231293 258.986328,428.857910 
z"/>
<path fill="#F5BA91" opacity="1.000000" stroke="none" 
	d="
M204.603973,151.461533 
	C201.709808,144.376007 197.848953,137.554749 196.206406,130.235657 
	C193.079559,116.302559 196.478241,102.294571 204.799316,88.694252 
	C232.161530,113.985283 264.212280,128.096268 300.840851,128.491547 
	C300.607910,140.407135 300.385925,151.760895 299.879303,163.581726 
	C298.115753,164.781769 296.541504,165.369751 295.172699,166.270111 
	C281.053040,175.557663 266.440552,183.198868 248.667587,181.071487 
	C247.490692,180.930618 246.200668,181.734940 244.963257,182.099625 
	C240.235352,180.173889 235.429733,178.417282 230.795242,176.288208 
	C220.187546,171.415070 212.766586,162.994415 206.017639,153.105392 
	C205.418793,152.227692 205.014877,151.915222 204.610947,151.602753 
	C204.610947,151.602753 204.639008,151.501007 204.603973,151.461533 
z"/>
<path fill="#F6BB92" opacity="1.000000" stroke="none" 
	d="
M245.960785,429.944183 
	C235.823395,431.491943 225.686005,433.039673 215.244690,434.840271 
	C208.455994,435.806396 201.955521,436.401825 195.490295,437.262177 
	C186.943588,438.399445 178.427856,439.767883 169.892197,440.990784 
	C164.898605,441.706207 159.877258,442.980347 154.894470,442.866028 
	C143.655045,442.608154 133.792313,438.777527 127.054375,429.182007 
	C120.437759,419.759247 119.415909,409.567322 122.712555,398.549683 
	C125.902443,387.888824 128.433395,377.030823 131.752472,366.391785 
	C138.387146,377.899994 147.648911,386.158173 159.175018,391.457642 
	C178.454605,400.321991 198.061462,408.472473 217.488312,417.019470 
	C227.028030,421.216583 236.472961,425.629150 245.960785,429.944183 
z"/>
<path fill="#E42A3C" opacity="1.000000" stroke="none" 
	d="
M134.374359,168.848114 
	C140.048981,182.421753 137.346680,194.929962 123.680504,204.758209 
	C115.694122,210.501755 108.060272,216.760925 100.528641,223.098129 
	C97.732269,225.451035 96.071655,225.235001 93.358177,222.988052 
	C84.180237,215.388016 74.673347,208.186905 65.411972,200.685425 
	C57.531048,194.302094 54.780560,184.327499 58.091461,173.395096 
	C61.062862,163.583679 70.236641,157.419769 80.074791,158.021332 
	C87.030426,158.446655 91.814735,162.698273 96.425575,168.102859 
	C102.127777,161.472137 108.480057,155.953430 117.753349,157.127243 
	C125.037300,158.049240 130.344604,162.341934 134.374359,168.848114 
z"/>
<path fill="#7B4A23" opacity="1.000000" stroke="none" 
	d="
M164.580322,253.001328 
	C173.730103,249.914261 182.674591,250.264923 192.113022,251.895111 
	C190.380646,260.352417 188.014145,268.673737 186.159119,277.107544 
	C185.654541,279.401611 186.002274,282.416229 187.129211,284.452393 
	C196.808563,301.940796 202.240326,320.566528 202.961227,340.551147 
	C202.989426,341.332886 202.883636,342.119476 202.842667,342.860779 
	C198.303207,338.702332 194.419647,333.694275 189.327240,330.852295 
	C183.165176,327.413330 178.015717,331.964417 173.445953,336.401459 
	C163.529236,328.427032 156.415939,316.747467 142.175964,315.340576 
	C142.639725,303.312439 142.899780,291.566956 144.078232,279.914368 
	C145.368988,267.151306 153.289474,258.830597 164.580322,253.001328 
z"/>
<path fill="#F6BB92" opacity="1.000000" stroke="none" 
	d="
M318.840942,190.057037 
	C305.580292,210.411728 280.166534,219.129929 256.463196,204.214218 
	C253.517288,199.279083 250.868576,194.497726 248.626556,189.359131 
	C252.650635,189.332062 256.264801,189.899719 259.885986,189.949127 
	C272.056610,190.115265 282.866608,185.820770 293.107788,179.614517 
	C296.595215,177.501114 300.366150,175.855576 304.007538,173.996262 
	C308.871124,179.262802 313.734741,184.529343 318.840942,190.057037 
z"/>
<path fill="#E7AF89" opacity="1.000000" stroke="none" 
	d="
M246.399399,429.961121 
	C236.472961,425.629150 227.028030,421.216583 217.488312,417.019470 
	C198.061462,408.472473 178.454605,400.321991 159.175018,391.457642 
	C147.648911,386.158173 138.387146,377.899994 132.103226,366.207458 
	C132.702515,362.372162 133.449753,358.853607 134.537781,355.149414 
	C137.731339,359.203033 140.550400,363.465393 143.443268,367.677032 
	C151.706970,379.708130 163.820541,386.307037 176.860992,391.867981 
	C200.252533,401.843048 223.494293,412.170074 246.772217,422.410126 
	C250.839325,424.199249 254.776703,426.283325 258.880157,428.544556 
	C254.936890,429.231293 250.887451,429.604645 246.399399,429.961121 
z"/>
<path fill="#E7AF89" opacity="1.000000" stroke="none" 
	d="
M303.987732,173.627945 
	C300.366150,175.855576 296.595215,177.501114 293.107788,179.614517 
	C282.866608,185.820770 272.056610,190.115265 259.885986,189.949127 
	C256.264801,189.899719 252.650635,189.332062 248.594421,189.006134 
	C247.104599,186.946045 246.053619,184.881683 244.982941,182.458466 
	C246.200668,181.734940 247.490692,180.930618 248.667587,181.071487 
	C266.440552,183.198868 281.053040,175.557663 295.172699,166.270111 
	C296.541504,165.369751 298.115753,164.781769 299.976379,163.995667 
	C301.561371,167.048233 302.764648,170.153931 303.987732,173.627945 
z"/>
<path fill="#7A4922" opacity="1.000000" stroke="none" 
	d="
M204.475037,151.890015 
	C205.014877,151.915222 205.418793,152.227692 205.841309,152.806671 
	C205.352982,152.774567 204.846054,152.475937 204.475037,151.890015 
z"/>
<path fill="#E6E5E0" opacity="1.000000" stroke="none" 
	d="
M243.912048,289.180664 
	C248.141647,290.231873 252.205200,291.586945 256.630554,293.501282 
	C256.994324,317.697784 256.996307,341.334961 256.998291,364.972168 
	C240.218033,358.550934 223.450500,352.096039 206.646820,345.736664 
	C203.256149,344.453491 203.961823,342.402863 205.375870,340.281311 
	C212.932648,328.943481 220.237808,317.416595 228.286255,306.436127 
	C232.781479,300.303284 238.550781,295.104309 243.912048,289.180664 
z"/>
<path fill="#D6D5D0" opacity="1.000000" stroke="none" 
	d="
M257.254089,365.215332 
	C256.996307,341.334961 256.994324,317.697784 256.986511,293.604919 
	C267.832825,297.585388 278.684967,302.021454 289.522186,307.047180 
	C289.338196,309.602570 289.028900,311.567749 289.021576,313.534088 
	C288.942749,334.769928 288.911407,356.005951 288.867065,377.241943 
	C278.414673,373.314117 267.962311,369.386292 257.254089,365.215332 
z"/>
<path fill="#E6E5E0" opacity="1.000000" stroke="none"
	d="
M289.137207,377.460388 
	C288.911407,356.005951 288.942749,334.769928 289.021576,313.534088 
	C289.028900,311.567749 289.338196,309.602570 289.752441,307.298950 
	C306.595032,316.544983 317.173615,330.692200 322.094482,349.565735 
	C318.706879,360.452057 315.164429,370.938629 311.816040,381.486755 
	C310.774902,384.766571 309.233185,385.610443 306.000885,384.223389 
	C300.539276,381.879700 294.945496,379.844025 289.137207,377.460388 
z"/>
</svg>