<svg version="1.1" id="Layer_1" xmlns="http://www.w3.org/2000/svg" xmlns:xlink="http://www.w3.org/1999/xlink" x="0px" y="0px"
	 width="100%" viewBox="0 0 512 512" enable-background="new 0 0 512 512" xml:space="preserve">
<path fill="#E4EAF8" opacity="1.000000" stroke="none"
	d="
M245.127533,183.998352 
	C273.615356,190.709076 298.951996,203.858994 321.014893,222.840607 
	C335.779755,235.543427 348.274872,250.441376 358.224518,267.379913 
	C367.896240,283.845337 375.006195,301.266693 379.135895,319.902039 
	C383.442902,339.337646 384.019562,358.937683 382.102051,378.718994 
	C379.977661,400.634430 373.766357,421.283600 363.605621,440.741486 
	C349.685486,467.398651 330.555450,489.584137 305.613281,506.479828 
	C301.459625,509.293488 296.214172,510.495392 291.236633,512.721069 
	C259.645782,513.000000 228.291550,513.000000 196.420593,512.655029 
	C195.339706,511.749634 194.867111,511.023743 194.197800,510.653259 
	C181.183456,503.449127 171.542480,492.723633 163.449158,480.790985 
	C201.734543,480.709503 239.553925,480.648193 277.372894,480.742859 
	C282.428925,480.755493 286.695312,479.528503 290.792267,476.461090 
	C313.355682,459.567505 329.950317,438.136688 340.316010,411.935242 
	C348.078766,392.313324 351.323395,371.932098 350.120209,350.852325 
	C349.867828,346.430603 347.663330,343.510193 343.244476,343.003662 
	C330.296326,341.519531 317.499237,342.348755 305.838470,348.619141 
	C291.773376,356.182373 277.035004,359.622955 261.095581,357.655945 
	C261.037323,347.678345 260.626953,338.159546 261.098938,328.684723 
	C262.156219,307.458374 257.191895,300.488495 234.484833,301.805115 
	C227.022797,302.237762 219.505264,301.713257 212.010300,301.181213 
	C212.005600,266.960205 212.101135,233.183807 211.884995,199.409393 
	C211.856293,194.923935 213.481659,192.739059 217.383087,191.302444 
	C222.641861,189.365997 227.795639,187.144440 233.449295,184.982513 
	C237.645248,184.612656 241.386398,184.305511 245.127533,183.998352 
z"/>
<path fill="#D5DCED" opacity="1.000000" stroke="none" 
	d="
M162.983032,480.860016 
	C171.542480,492.723633 181.183456,503.449127 194.197800,510.653259 
	C194.867111,511.023743 195.339706,511.749634 195.951935,512.655029 
	C169.979111,513.000000 143.958206,513.000000 117.468658,513.000000 
	C103.062401,508.510284 92.451347,499.171234 81.909599,489.507996 
	C59.642017,469.096069 43.751495,444.470490 34.400578,415.985962 
	C30.159540,403.067047 28.286421,389.300354 26.097294,375.795319 
	C23.061403,357.066467 25.103788,338.388611 29.146229,320.046417 
	C33.449032,300.522736 40.654133,282.072113 51.314945,264.955627 
	C60.076550,250.888474 70.507217,238.348907 82.497154,227.004593 
	C93.038757,217.030609 104.896736,208.940552 117.460426,201.728607 
	C131.536530,193.648499 146.711090,188.531204 162.899689,184.313385 
	C165.425201,184.645844 167.239807,184.862717 169.055161,184.869263 
	C190.368195,184.946167 211.681351,184.991547 232.994476,185.045227 
	C227.795639,187.144440 222.641861,189.365997 217.383087,191.302444 
	C213.481659,192.739059 211.856293,194.923935 211.884995,199.409393 
	C212.101135,233.183807 212.005600,266.960205 211.550262,301.278717 
	C206.058167,301.753632 201.023315,301.685791 195.990982,301.183105 
	C195.993500,268.811890 195.993500,236.875565 195.993500,204.209717 
	C194.041214,205.458633 192.515778,206.143860 191.357651,207.223175 
	C184.583618,213.536331 177.576370,219.641357 171.240433,226.374298 
	C154.603821,244.053421 143.021393,264.824036 134.965775,287.635315 
	C127.114998,309.866516 123.369530,332.823853 122.419510,356.291260 
	C115.737213,353.697815 109.329086,351.403717 103.171860,348.565338 
	C91.216705,343.054169 78.798264,340.977783 65.777016,342.792328 
	C60.548603,343.520905 57.996967,346.291046 58.057648,351.434998 
	C58.151707,359.409088 58.049351,367.444031 58.985920,375.339813 
	C64.061134,418.126617 84.439178,452.076233 119.075882,477.497040 
	C121.478142,479.260162 124.793839,480.624603 127.715240,480.684387 
	C138.859589,480.912384 150.016434,480.529755 161.375305,480.497040 
	C162.049011,480.699219 162.516022,480.779633 162.983032,480.860016 
z"/>
<path fill="#FF507D" opacity="1.000000" stroke="none" 
	d="
M513.000000,298.531342 
	C510.319489,306.726318 508.034302,314.622711 504.811279,322.115662 
	C502.852722,326.668945 499.445801,330.599243 496.123901,334.646606 
	C485.485413,333.116730 476.383789,329.678955 468.917572,322.455475 
	C455.306671,309.287048 449.472198,292.586517 448.159210,274.350189 
	C446.745514,254.714813 452.023651,236.651657 464.520050,220.825287 
	C467.666046,220.862518 470.364441,220.883484 473.062805,220.904449 
	C490.888763,226.003326 501.196259,238.877808 507.850800,255.184891 
	C509.981354,260.405853 510.853851,266.140198 512.651001,271.819824 
	C513.000000,280.687561 513.000000,289.375122 513.000000,298.531342 
z"/>
<path fill="#FFDCE5" opacity="1.000000" stroke="none" 
	d="
M1.000000,46.444164 
	C4.414846,44.333374 7.810258,41.268539 11.247608,41.220757 
	C39.399113,40.829445 67.558456,40.981354 95.715363,41.013535 
	C102.742401,41.021564 106.728348,43.887909 106.996819,48.898788 
	C107.309036,54.726013 104.091316,57.978233 97.790863,57.987080 
	C74.798851,58.019356 51.806755,57.999939 28.814693,58.000000 
	C22.983374,58.000011 17.138485,57.757954 11.325434,58.083820 
	C7.350658,58.306637 4.145056,57.420658 1.317228,54.153080 
	C1.000000,51.629444 1.000000,49.258884 1.000000,46.444164 
z"/>
<path fill="#FFEDF2" opacity="1.000000" stroke="none" 
	d="
M54.550018,1.000000 
	C59.241718,2.264796 63.490387,3.506871 67.723106,4.801092 
	C71.577873,5.979748 74.231323,8.578315 74.379036,12.578079 
	C74.539253,16.916634 72.424950,20.273769 67.905769,21.477959 
	C66.831398,21.764238 65.586685,21.907206 64.525154,21.662081 
	C59.201229,20.432697 53.859280,19.229137 48.629032,17.664320 
	C45.041763,16.591057 41.165478,14.649750 41.503311,10.424754 
	C41.746872,7.378798 44.157864,4.506152 45.801056,1.278102 
	C48.700012,1.000000 51.400028,1.000000 54.550018,1.000000 
z"/>
<path fill="#E1A546" opacity="1.000000" stroke="none" 
	d="
M473.038422,220.462524 
	C470.364441,220.883484 467.666046,220.862518 464.237823,220.607025 
	C460.994049,220.547226 458.480133,220.721970 455.966217,220.896698 
	C455.644135,218.306122 455.091217,215.720505 455.035614,213.124222 
	C454.456024,186.069412 446.122375,161.386322 432.719421,138.112045 
	C423.879059,122.760811 412.420471,109.592262 399.286865,97.993408 
	C385.438110,85.762970 369.588135,76.444321 352.326294,69.716789 
	C334.928528,62.936287 317.008881,58.928001 298.181580,58.922626 
	C275.441345,58.916130 252.701279,58.346340 229.467285,57.585732 
	C228.993988,51.741543 229.014526,46.331970 229.035065,40.922401 
	C248.197754,40.948269 267.360596,41.031776 286.523102,40.984390 
	C307.200928,40.933262 327.663727,43.006176 347.361237,49.330315 
	C367.273834,55.723518 385.809753,65.169518 402.473694,77.995789 
	C422.735779,93.591530 439.306702,112.550591 451.250793,135.061920 
	C460.619568,152.719406 468.014587,171.339859 470.054260,191.588211 
	C471.009247,201.068848 472.025513,210.543335 473.038422,220.462524 
z"/>
<path fill="#FFC850" opacity="1.000000" stroke="none" 
	d="
M229.117294,81.941650 
	C244.787476,81.454460 245.206253,83.590012 245.058105,98.246811 
	C244.826202,121.191635 244.974319,144.140289 244.440964,167.547775 
	C236.426453,168.005905 228.918457,167.706985 221.441208,168.059677 
	C202.784653,168.939697 187.642700,153.035858 187.948502,134.415741 
	C188.202805,118.932297 188.000504,103.441368 188.000458,87.953751 
	C188.000458,86.176880 188.000458,84.400009 188.000458,82.005234 
	C184.898117,82.005234 182.449463,82.005234 179.919464,81.804642 
	C179.687088,81.346115 179.474930,81.156639 179.201630,81.035637 
	C179.157135,73.988281 179.112640,66.940918 179.318832,59.308220 
	C179.790390,58.516800 179.937302,58.267162 180.461044,57.975899 
	C186.571884,58.184242 192.285904,58.545109 195.895050,53.236313 
	C195.961060,61.544193 196.149582,69.374916 195.925385,77.193802 
	C195.821182,80.828049 196.792648,82.198975 200.646561,82.088127 
	C210.130356,81.815346 219.626266,81.963043 229.117294,81.941650 
z"/>
<path fill="#EAB14A" opacity="1.000000" stroke="none" 
	d="
M180.000824,82.005234 
	C182.449463,82.005234 184.898117,82.005234 188.000458,82.005234 
	C188.000458,84.400009 188.000458,86.176880 188.000458,87.953751 
	C188.000504,103.441368 188.202805,118.932297 187.948502,134.415741 
	C187.642700,153.035858 202.784653,168.939697 221.441208,168.059677 
	C228.918457,167.706985 236.426453,168.005905 244.376831,168.013641 
	C244.897949,173.035690 244.962677,178.052338 245.077469,183.533661 
	C241.386398,184.305511 237.645248,184.612656 233.449295,184.982529 
	C211.681351,184.991547 190.368195,184.946167 169.055161,184.869263 
	C167.239807,184.862717 165.425201,184.645844 163.280823,184.270325 
	C162.970535,155.122726 163.159103,126.230095 162.925186,97.340881 
	C162.832047,85.838036 163.947998,80.850861 178.724457,81.992134 
	C179.633133,81.996376 179.816971,82.000809 180.000824,82.005234 
z"/>
<path fill="#FFDC64" opacity="1.000000" stroke="none" 
	d="
M229.072464,81.479294 
	C219.626266,81.963043 210.130356,81.815346 200.646561,82.088127 
	C196.792648,82.198975 195.821182,80.828049 195.925385,77.193802 
	C196.149582,69.374916 195.961060,61.544193 195.912125,52.840736 
	C195.889847,50.361149 195.896881,48.759140 195.936249,46.681259 
	C195.979065,43.218555 196.258453,40.202850 195.941574,37.251171 
	C195.360931,31.842840 197.412674,27.936178 201.931747,25.152031 
	C207.724014,25.101519 213.516235,25.016314 219.308563,25.009792 
	C225.705780,25.002590 228.959518,28.240612 228.998184,34.557323 
	C229.009323,36.378559 229.004715,38.199890 229.021210,40.471786 
	C229.014526,46.331970 228.993988,51.741543 229.002075,57.625237 
	C229.029678,65.738556 229.028656,73.377754 229.072464,81.479294 
z"/>
<path fill="#FFDCE5" opacity="1.000000" stroke="none" 
	d="
M147.681030,69.540482 
	C146.762177,74.480263 143.133942,75.947441 139.393723,76.914215 
	C126.577522,80.226952 113.717209,83.369713 100.865456,86.543823 
	C96.277184,87.677032 91.783684,85.065216 90.319839,80.509102 
	C88.989815,76.369469 90.900078,71.690399 95.323540,70.478996 
	C108.886688,66.764595 122.487442,63.105438 136.232880,60.171085 
	C143.854630,58.544006 147.129578,61.683163 147.681030,69.540482 
z"/>
<path fill="#FFDCE5" opacity="1.000000" stroke="none" 
	d="
M97.375862,29.926777 
	C96.530937,29.669521 96.049568,29.512993 95.621445,29.264681 
	C90.768974,26.450264 88.885750,22.407290 90.442337,18.183809 
	C91.975540,14.023767 96.143463,11.855986 101.645088,13.167906 
	C114.507820,16.235155 127.327171,19.502268 140.090942,22.958565 
	C146.005981,24.560299 149.006042,29.090811 147.720184,33.400524 
	C146.190582,38.527233 141.466354,40.745346 135.325943,39.232071 
	C122.806099,36.146610 110.284828,33.066933 97.375862,29.926777 
z"/>
<path fill="#FFEDF2" opacity="1.000000" stroke="none" 
	d="
M44.287659,84.236847 
	C51.361538,81.985779 58.072632,79.572685 64.987663,78.152809 
	C69.679993,77.189316 73.331604,80.383354 74.002159,84.604179 
	C74.904427,90.283440 72.868332,93.527565 67.386543,94.948639 
	C62.575779,96.195763 57.708641,97.233177 52.921803,98.562691 
	C48.195953,99.875259 44.728992,98.194946 42.222347,94.323860 
	C39.810520,90.599190 41.090717,87.351936 44.287659,84.236847 
z"/>
<path fill="#FFC653" opacity="1.000000" stroke="none" 
	d="
M201.472290,25.098213 
	C197.412674,27.936178 195.360931,31.842840 195.941574,37.251171 
	C196.258453,40.202850 195.979065,43.218555 195.684998,46.437805 
	C194.944031,45.988804 194.559662,45.241989 194.017441,44.636570 
	C190.500793,40.710079 185.772812,41.611668 181.577744,42.370895 
	C180.608093,42.546383 180.177963,47.045574 179.946747,49.595692 
	C179.695770,52.363777 179.966812,55.179195 180.010223,57.973972 
	C179.937302,58.267162 179.790390,58.516800 179.385162,58.841488 
	C179.142258,50.855709 178.908340,42.747570 179.081604,34.648144 
	C179.215698,28.380192 182.884598,25.068521 189.099274,25.017399 
	C193.070129,24.984734 197.041611,25.032623 201.472290,25.098213 
z"/>
<path fill="#FFC653" opacity="1.000000" stroke="none" 
	d="
M179.919464,81.804642 
	C179.816971,82.000809 179.633133,81.996376 179.173981,81.973145 
	C178.898682,81.954346 179.035187,81.490005 179.118408,81.262817 
	C179.474930,81.156639 179.687088,81.346115 179.919464,81.804642 
z"/>
<path fill="#D33C69" opacity="1.000000" stroke="none" 
	d="
M455.578796,220.952850 
	C458.480133,220.721970 460.994049,220.547226 463.790192,220.590759 
	C452.023651,236.651657 446.745514,254.714813 448.159210,274.350189 
	C449.472198,292.586517 455.306671,309.287048 468.917572,322.455475 
	C476.383789,329.678955 485.485413,333.116730 495.810608,334.789978 
	C487.878204,344.943939 477.555939,350.911591 464.610321,350.885162 
	C448.538422,350.852325 436.710724,342.794037 427.992432,329.749603 
	C417.881653,314.621826 413.916077,297.698090 415.169861,279.819489 
	C416.471405,261.260223 422.410919,244.093887 436.610016,231.318802 
	C441.741730,226.701752 448.937469,224.378815 455.578796,220.952850 
z"/>
<path fill="#FF517E" opacity="1.000000" stroke="none" 
	d="
M163.449158,480.790985 
	C162.516022,480.779633 162.049011,480.699219 161.312195,480.106689 
	C160.269623,478.145721 159.562286,476.657288 158.713287,475.254578 
	C153.914978,467.326843 148.460052,459.727051 144.373947,451.450195 
	C129.701050,421.728760 122.829781,390.129547 123.433395,356.991943 
	C131.564819,357.379456 139.270172,357.766846 147.010864,358.612183 
	C147.065552,366.228271 147.051575,373.386688 147.111725,380.544495 
	C147.213058,392.602295 153.636353,399.007111 165.595276,399.080475 
	C175.744980,399.142700 185.894455,399.238586 196.032501,399.762085 
	C196.013977,404.034851 196.025131,407.865265 195.996063,411.695343 
	C195.941803,418.846100 197.229385,426.026581 190.457596,431.776917 
	C187.580963,434.219604 186.633408,439.208984 188.969650,443.383362 
	C191.206360,447.379883 195.004333,448.166809 199.248352,448.030182 
	C203.407455,447.896271 207.576965,448.095001 211.736862,447.974304 
	C217.059189,447.819946 219.926208,444.801971 220.014938,439.454193 
	C220.093735,434.704407 218.393143,430.876678 214.704376,427.681549 
	C213.303284,426.467987 212.212936,424.142792 212.140869,422.279388 
	C211.845016,414.629822 211.995880,406.962952 212.445465,399.223450 
	C223.037369,399.121521 233.166321,399.125671 243.294922,399.068420 
	C254.634079,399.004333 260.926971,392.759949 261.008850,381.544159 
	C261.065857,373.741089 261.099701,365.937897 261.143860,358.134735 
	C277.035004,359.622955 291.773376,356.182373 305.838470,348.619141 
	C317.499237,342.348755 330.296326,341.519531 343.244476,343.003662 
	C347.663330,343.510193 349.867828,346.430603 350.120209,350.852325 
	C351.323395,371.932098 348.078766,392.313324 340.316010,411.935242 
	C329.950317,438.136688 313.355682,459.567505 290.792267,476.461090 
	C286.695312,479.528503 282.428925,480.755493 277.372894,480.742859 
	C239.553925,480.648193 201.734543,480.709503 163.449158,480.790985 
z"/>
<path fill="#FFDC64" opacity="1.000000" stroke="none" 
	d="
M196.044037,399.319580 
	C185.894455,399.238586 175.744980,399.142700 165.595276,399.080475 
	C153.636353,399.007111 147.213058,392.602295 147.111725,380.544495 
	C147.051575,373.386688 147.065552,366.228271 147.062073,358.133087 
	C147.089233,344.736725 147.009384,332.276459 147.138611,319.818359 
	C147.257324,308.374115 153.776276,301.983612 165.111618,301.888397 
	C175.403931,301.801971 185.696182,301.708435 195.988464,301.617981 
	C201.023315,301.685791 206.058167,301.753632 211.553070,301.723938 
	C219.505264,301.713257 227.022797,302.237762 234.484833,301.805115 
	C257.191895,300.488495 262.156219,307.458374 261.098938,328.684723 
	C260.626953,338.159546 261.037323,347.678345 261.095581,357.655945 
	C261.099701,365.937897 261.065857,373.741089 261.008850,381.544159 
	C260.926971,392.759949 254.634079,399.004333 243.294922,399.068420 
	C233.166321,399.125671 223.037369,399.121521 211.984253,399.145508 
	C206.054642,399.204224 201.049347,399.261902 196.044037,399.319580 
M234.497498,328.977753 
	C232.462418,327.991272 230.439606,326.179718 228.390305,326.149261 
	C212.433075,325.912109 196.469193,325.889862 180.510849,326.084930 
	C174.690918,326.156067 171.771072,329.545746 171.989151,334.872467 
	C172.175827,339.432373 175.314865,342.018402 180.852142,342.028046 
	C196.314148,342.054901 211.776321,342.069397 227.238251,342.025360 
	C235.383011,342.002167 238.381561,337.117950 234.497498,328.977753 
M202.502563,374.992462 
	C208.312576,374.984955 214.137054,375.229980 219.928528,374.898438 
	C225.654312,374.570618 228.377914,371.185181 228.018097,365.727386 
	C227.702347,360.938110 225.332169,359.005341 219.510284,358.982178 
	C209.384308,358.941895 199.257996,358.956116 189.131897,358.976227 
	C183.495117,358.987427 180.264114,361.669739 180.009277,366.469940 
	C179.767075,371.032288 183.644257,374.773590 189.055771,374.960510 
	C193.200928,375.103668 197.354919,374.991211 202.502563,374.992462 
z"/>
<path fill="#D23D69" opacity="1.000000" stroke="none" 
	d="
M123.007332,356.991760 
	C122.829781,390.129547 129.701050,421.728760 144.373947,451.450195 
	C148.460052,459.727051 153.914978,467.326843 158.713287,475.254578 
	C159.562286,476.657288 160.269623,478.145721 161.105499,479.984924 
	C150.016434,480.529755 138.859589,480.912384 127.715240,480.684387 
	C124.793839,480.624603 121.478142,479.260162 119.075882,477.497040 
	C84.439178,452.076233 64.061134,418.126617 58.985920,375.339813 
	C58.049351,367.444031 58.151707,359.409088 58.057648,351.434998 
	C57.996967,346.291046 60.548603,343.520905 65.777016,342.792328 
	C78.798264,340.977783 91.216705,343.054169 103.171860,348.565338 
	C109.329086,351.403717 115.737213,353.697815 122.455788,356.457031 
	C122.879601,356.676178 123.007332,356.991760 123.007332,356.991760 
z"/>
<path fill="#E4EAF8" opacity="1.000000" stroke="none" 
	d="
M123.433395,356.991943 
	C123.007332,356.991760 122.879601,356.676178 122.843323,356.510376 
	C123.369530,332.823853 127.114998,309.866516 134.965775,287.635315 
	C143.021393,264.824036 154.603821,244.053421 171.240433,226.374298 
	C177.576370,219.641357 184.583618,213.536331 191.357651,207.223175 
	C192.515778,206.143860 194.041214,205.458633 195.993500,204.209717 
	C195.993500,236.875565 195.993500,268.811890 195.990982,301.183105 
	C185.696182,301.708435 175.403931,301.801971 165.111618,301.888397 
	C153.776276,301.983612 147.257324,308.374115 147.138611,319.818359 
	C147.009384,332.276459 147.089233,344.736725 147.026733,357.675110 
	C139.270172,357.766846 131.564819,357.379456 123.433395,356.991943 
z"/>
<path fill="#FF527C" opacity="1.000000" stroke="none" 
	d="
M180.461029,57.975899 
	C179.966812,55.179195 179.695770,52.363777 179.946747,49.595692 
	C180.177963,47.045574 180.608093,42.546383 181.577744,42.370895 
	C185.772812,41.611668 190.500793,40.710079 194.017441,44.636570 
	C194.559662,45.241989 194.944031,45.988804 195.652649,46.913677 
	C195.896881,48.759140 195.889847,50.361149 195.865723,52.358734 
	C192.285904,58.545109 186.571884,58.184242 180.461029,57.975899 
z"/>
<path fill="#D23D69" opacity="1.000000" stroke="none" 
	d="
M196.032501,399.762085 
	C201.049347,399.261902 206.054642,399.204224 211.521164,399.224487 
	C211.995880,406.962952 211.845016,414.629822 212.140869,422.279388 
	C212.212936,424.142792 213.303284,426.467987 214.704376,427.681549 
	C218.393143,430.876678 220.093735,434.704407 220.014938,439.454193 
	C219.926208,444.801971 217.059189,447.819946 211.736862,447.974304 
	C207.576965,448.095001 203.407455,447.896271 199.248352,448.030182 
	C195.004333,448.166809 191.206360,447.379883 188.969650,443.383362 
	C186.633408,439.208984 187.580963,434.219604 190.457596,431.776917 
	C197.229385,426.026581 195.941803,418.846100 195.996063,411.695343 
	C196.025131,407.865265 196.013977,404.034851 196.032501,399.762085 
z"/>
<path fill="#E1A646" opacity="1.000000" stroke="none" 
	d="
M234.750381,329.261719 
	C238.381561,337.117950 235.383011,342.002167 227.238251,342.025360 
	C211.776321,342.069397 196.314148,342.054901 180.852142,342.028046 
	C175.314865,342.018402 172.175827,339.432373 171.989151,334.872467 
	C171.771072,329.545746 174.690918,326.156067 180.510849,326.084930 
	C196.469193,325.889862 212.433075,325.912109 228.390305,326.149261 
	C230.439606,326.179718 232.462418,327.991272 234.750381,329.261719 
z"/>
<path fill="#EAB149" opacity="1.000000" stroke="none" 
	d="
M202.003769,374.992432 
	C197.354919,374.991211 193.200928,375.103668 189.055771,374.960510 
	C183.644257,374.773590 179.767075,371.032288 180.009277,366.469940 
	C180.264114,361.669739 183.495117,358.987427 189.131897,358.976227 
	C199.257996,358.956116 209.384308,358.941895 219.510284,358.982178 
	C225.332169,359.005341 227.702347,360.938110 228.018097,365.727386 
	C228.377914,371.185181 225.654312,374.570618 219.928528,374.898438 
	C214.137054,375.229980 208.312576,374.984955 202.003769,374.992432 
z"/>
</svg>