<svg version="1.1" id="Layer_1" xmlns="http://www.w3.org/2000/svg" xmlns:xlink="http://www.w3.org/1999/xlink" x="0px" y="0px"
	 width="100%" viewBox="0 0 512 512" enable-background="new 0 0 512 512" xml:space="preserve">
<path fill="#EAF6FF" opacity="1.000000" stroke="none"
	d="
M513.000000,32.000000
	C513.000000,91.020897 513.000000,150.041794 512.687988,209.236084
	C509.590302,214.237442 507.260590,219.409637 503.927460,223.824173
	C496.153931,234.119766 485.755219,240.802582 472.671295,240.878845
	C421.710846,241.175842 370.746826,240.853149 319.786011,241.116257
	C308.779968,241.173096 298.977783,238.801376 290.278778,232.038254
	C279.910431,223.977325 273.170868,213.631912 273.106415,200.348145
	C272.848511,147.222137 272.992767,94.094131 273.031372,40.966900
	C273.032654,39.212105 273.352356,37.421974 273.770630,35.708611
	C277.558380,20.192905 286.668579,9.316659 301.749268,3.588215
	C302.691284,3.230385 303.258453,1.885603 304.000000,1.000001
	C363.020905,1.000000 422.041779,1.000000 481.236084,1.312027
	C481.862427,2.071406 482.236938,2.744184 482.779846,2.933148
	C496.541534,7.723352 505.737061,17.118528 510.983704,30.599007
	C511.229950,31.231747 512.308899,31.540403 513.000000,32.000000
z"/>
	C160.277695,88.999084 80.638847,88.999542 1.000000,89.000000
	C1.000000,77.645775 1.000000,66.291542 1.468657,54.468727
	C81.569458,53.999580 161.201599,53.999023 240.833740,53.998466
z"/>
<path fill="#3C77FF" opacity="1.000000" stroke="none"
	d="
M273.166779,375.998718
	C273.118500,364.975006 273.070221,353.951324 273.551941,342.463806
	C353.721283,342.000031 433.360626,342.000000 513.000000,342.000000
	C513.000000,354.687561 513.000000,367.375122 512.531372,380.531342
	C492.369751,380.999573 472.676819,380.999176 452.956787,380.568939
	C452.992706,372.002594 449.945251,366.593903 443.649872,364.138855
	C436.783081,361.460938 431.062286,363.570892 426.055389,368.600464
	C423.140564,371.528473 420.045715,374.277313 416.743652,376.798218
	C414.486664,376.326447 412.517944,376.021881 410.549072,376.020721
	C364.754974,375.993500 318.960876,375.999146 273.166779,375.998718
z"/>
<path fill="#DCF0FF" opacity="1.000000" stroke="none"
	d="
M0.999998,304.468658
	C2.405561,301.756866 3.811126,299.513763 6.025729,297.126495
	C83.262161,296.974213 159.689545,296.966095 236.116943,296.957947
	C239.434662,302.393585 241.067795,308.286102 241.008545,314.663269
	C240.960815,319.798706 240.988937,324.934845 240.450150,330.534668
	C160.277939,330.999115 80.638969,330.999542 1.000000,331.000000
	C1.000000,322.312439 1.000000,313.624878 0.999998,304.468658
z"/>
<path fill="#06B8FF" opacity="1.000000" stroke="none"
	d="
M240.905441,53.535259
	C161.201599,53.999023 81.569458,53.999580 1.468657,54.000069
	C1.000000,46.979053 1.000000,39.958103 1.308949,32.762409
	C4.038243,28.378973 6.458589,24.170282 9.355049,19.973213
	C81.475327,19.990063 153.119476,20.005619 224.763611,19.956617
	C227.215164,19.954939 229.666260,19.305634 232.117569,18.958191
	C237.859604,25.451433 240.787201,33.056576 240.983749,41.697548
	C241.069946,45.487041 240.984589,49.280430 240.905441,53.535259
z"/>
<path fill="#3282FF" opacity="1.000000" stroke="none"
	d="
M273.167297,319.997559
	C271.533905,307.820496 276.093292,297.610840 283.927917,288.269287
	C286.438446,288.872742 288.280304,289.926880 290.123474,289.929138
	C359.057220,290.013092 427.991150,290.015198 496.924866,289.911652
	C498.632660,289.909088 500.338501,288.591797 502.045258,287.887695
	C504.696472,292.083130 507.359863,296.270966 509.991791,300.478485
	C510.832306,301.822144 511.589386,303.218018 512.692322,304.294983
	C513.000000,309.022095 513.000000,314.044189 512.531372,319.533142
	C432.430878,319.999207 352.799103,319.998383 273.167297,319.997559
z"/>
<path fill="#D5EDFF" opacity="1.000000" stroke="none"
	d="
M1.000000,331.468658
	C80.638969,330.999542 160.277939,330.999115 240.374924,330.997742
	C240.883316,340.021576 240.933701,349.046356 240.450653,358.535034
	C160.278137,358.999298 80.639069,358.999634 1.000000,359.000000
	C1.000000,349.979095 1.000000,340.958221 1.000000,331.468658
z"/>
<path fill="#505EFF" opacity="1.000000" stroke="none"
	d="
M279.885132,492.041870
	C275.215149,486.319946 273.115723,479.693481 273.006958,472.380920
	C272.970001,469.895294 273.015656,467.408508 273.552704,464.461548
	C353.721222,464.000549 433.360626,464.000275 513.000000,464.000000
	C513.000000,469.688049 513.000000,475.376068 512.688599,481.247498
	C510.291046,484.966797 508.204834,488.502716 505.642639,492.027100
	C430.072815,492.024353 354.978973,492.033112 279.885132,492.041870
z"/>
<path fill="#C1E4FF" opacity="1.000000" stroke="none"
	d="
M240.907776,448.534180
	C161.201309,448.998291 81.569313,448.999146 1.468657,449.000000
	C1.000000,440.312439 1.000000,431.624878 1.468657,422.468658
	C81.569122,421.999481 161.200943,421.998993 240.832748,421.998505
	C240.882568,430.689301 240.932404,439.380127 240.907776,448.534180
z"/>
<path fill="#C5E6FF" opacity="1.000000" stroke="none"
	d="
M240.908020,421.535278
	C161.200943,421.998993 81.569122,421.999481 1.468657,422.000000
	C1.000000,413.645782 1.000000,405.291534 1.468657,396.468658
	C81.569763,395.999573 161.202225,395.999146 240.834671,395.998749
	C240.884201,404.356537 240.933746,412.714294 240.908020,421.535278
z"/>
<path fill="#CFEAFF" opacity="1.000000" stroke="none"
	d="
M1.000000,359.468628
	C80.639069,358.999634 160.278137,358.999298 240.375244,358.998169
	C240.883331,367.022125 240.933365,375.046875 240.449814,383.535248
	C160.277481,383.999268 80.638741,383.999634 1.000000,384.000000
	C1.000000,375.979095 1.000000,367.958191 1.000000,359.468628
z"/>
<path fill="#B1DEFF" opacity="1.000000" stroke="none"
	d="
M4.880694,487.041504
	C7.665230,486.694336 10.449533,486.046112 13.234334,486.043976
	C85.376999,485.988373 157.519714,486.008575 229.662384,485.963379
	C232.117218,485.961823 234.571716,485.419861 237.429169,485.063446
	C233.878021,497.157837 225.032272,504.635651 213.945343,509.981750
	C212.403931,510.725067 210.915863,511.578979 209.701538,512.690857
	C151.312439,513.000000 92.624878,513.000000 33.769802,512.680420
	C31.904711,511.572235 30.226944,510.737305 28.506327,510.002716
	C17.679483,505.380493 9.469118,498.077301 4.880694,487.041504
z"/>
<path fill="#367EFF" opacity="1.000000" stroke="none"
	d="
M273.095093,320.461456
	C352.799103,319.998383 432.430878,319.999207 512.531372,320.000000
	C513.000000,327.020966 513.000000,334.041901 513.000000,341.531433
	C433.360626,342.000000 353.721283,342.000031 273.624146,342.000183
	C273.118561,334.975311 273.070740,327.950348 273.095093,320.461456
z"/>
<path fill="#1F9AFF" opacity="1.000000" stroke="none"
	d="
M240.833496,172.999069
	C240.881378,179.689911 240.929276,186.380737 240.447449,193.535522
	C160.278503,193.999649 80.639252,193.999817 1.000000,194.000000
	C1.000000,186.312424 1.000000,178.624832 1.468657,170.468811
	C27.582836,170.000412 53.228737,170.061295 78.873260,169.901138
	C81.287453,169.886063 83.692955,168.479538 86.404724,167.879807
	C89.537537,170.848602 92.367203,173.657578 95.198898,176.464493
	C100.176758,181.398758 106.151917,182.624893 112.280037,179.105011
	C116.079369,176.922729 119.268066,173.677338 123.105179,171.060425
	C126.701912,171.807800 129.922607,172.911209 133.147034,172.922256
	C169.042191,173.045258 204.937927,172.999374 240.833496,172.999069
z"/>
<path fill="#4C63FF" opacity="1.000000" stroke="none"
	d="
M513.000000,463.531616
	C433.360626,464.000275 353.721222,464.000549 273.624115,464.001038
	C273.118683,456.976562 273.071014,449.951904 273.552734,442.463623
	C299.536530,442.000000 324.990997,442.035522 350.445099,441.951782
	C353.391022,441.942047 356.334747,441.270050 359.561615,441.056885
	C362.331573,443.666077 364.734192,446.217590 367.324066,448.562256
	C373.796722,454.422058 381.995575,454.451843 388.554321,448.694946
	C390.674408,446.834045 392.679230,444.841827 395.140137,443.073547
	C397.659698,443.491577 399.775635,443.964813 401.892151,443.967407
	C438.928070,444.012482 475.964050,444.000000 513.000000,444.000000
	C513.000000,450.354401 513.000000,456.708801 513.000000,463.531616
z"/>
<path fill="#2197FF" opacity="1.000000" stroke="none"
	d="
M1.000000,194.466858
	C80.639252,193.999817 160.278503,193.999649 240.375549,193.999054
	C241.729935,201.205200 240.567688,208.101746 237.277374,214.527649
	C234.861832,213.874908 232.878906,213.056671 230.895279,213.054947
	C155.319092,212.989426 79.742828,212.998856 4.166583,212.998276
	C3.295172,211.807312 2.423762,210.616364 1.276176,209.712708
	C1.000000,204.977905 1.000000,199.955811 1.000000,194.466858
z"/>
<path fill="#10ADFF" opacity="1.000000" stroke="none"
	d="
M1.000000,89.468399
	C80.638847,88.999542 160.277695,88.999084 240.374268,88.997849
	C240.880127,96.354774 240.928253,103.712471 240.446945,111.534546
	C222.621353,111.999260 205.324188,112.089996 188.030197,111.895889
	C185.623062,111.868874 183.231705,110.438789 180.829315,109.245697
	C181.198318,100.622719 178.338898,95.171272 172.193237,92.375717
	C165.863586,89.496460 159.788742,91.034676 153.727661,96.993690
	C149.935822,100.721664 146.096359,104.401184 141.833145,108.075233
	C134.453842,108.365440 127.520226,108.942215 120.585373,108.957489
	C80.723740,109.045326 40.861820,109.000107 1.000000,109.000000
	C1.000000,102.645599 1.000000,96.291206 1.000000,89.468399
z"/>
<path fill="#535BFF" opacity="1.000000" stroke="none"
	d="
M279.940247,492.396851
	C354.978973,492.033112 430.072815,492.024353 505.585999,492.381531
	C501.060120,501.185455 493.863525,506.820129 484.709229,510.154449
	C483.606903,510.555939 482.893585,512.025452 482.000000,513.000000
	C423.312439,513.000000 364.624878,513.000000 305.468658,513.000000
	C304.193878,512.279297 303.506805,511.257629 302.563263,510.884369
	C293.156006,507.162842 285.114441,501.789825 279.940247,492.396851
z"/>
<path fill="#02BEFF" opacity="1.000000" stroke="none"
	d="
M232.063553,18.608753
	C229.666260,19.305634 227.215164,19.954939 224.763611,19.956617
	C153.119476,20.005619 81.475327,19.990063 9.495885,19.655655
	C13.847538,12.086739 20.648684,7.517259 28.312073,3.959168
	C29.700134,3.314696 30.778605,2.003433 32.000000,1.000000
	C91.020897,1.000000 150.041794,1.000000 209.531342,0.999999
	C211.199005,2.001960 212.265213,3.259476 213.619278,3.963015
	C220.635986,7.608725 227.444778,11.476504 232.063553,18.608753
z"/>
<path fill="#15A6FF" opacity="1.000000" stroke="none"
	d="
M1.000000,109.468658
	C40.861820,109.000107 80.723740,109.045326 120.585373,108.957489
	C127.520226,108.942215 134.453842,108.365440 141.674194,108.378281
	C130.023087,120.666580 118.085808,132.624619 105.802238,144.929550
	C99.152840,138.139038 93.197189,131.850250 87.009506,125.798706
	C81.325386,120.239655 74.087402,119.495895 67.840866,123.461792
	C60.814499,127.922806 59.272430,136.062302 63.305603,145.003601
	C42.234699,145.000626 21.617350,145.000320 1.000000,145.000000
	C1.000000,133.312439 1.000000,121.624878 1.000000,109.468658
z"/>
<path fill="#476AFF" opacity="1.000000" stroke="none"
	d="
M513.000000,443.531342
	C475.964050,444.000000 438.928070,444.012482 401.892151,443.967407
	C399.775635,443.964813 397.659698,443.491577 395.310730,442.776733
	C405.024109,432.459564 414.970215,422.603027 425.190369,413.077820
	C427.416534,413.605682 429.368469,413.970642 431.320892,413.973358
	C458.547211,414.011261 485.773621,413.999603 513.000000,414.000000
	C513.000000,423.687561 513.000000,433.375122 513.000000,443.531342
z"/>
<path fill="#CAE8FF" opacity="1.000000" stroke="none"
	d="
M1.000000,384.460632
	C80.638741,383.999634 160.277481,383.999268 240.374191,383.998352
	C240.883072,387.694489 240.933990,391.391174 240.909790,395.543335
	C161.202225,395.999146 81.569763,395.999573 1.468657,396.000000
	C1.000000,392.307098 1.000000,388.614166 1.000000,384.460632
z"/>
<path fill="#4072FF" opacity="1.000000" stroke="none"
	d="
M513.000000,413.531342
	C485.773621,413.999603 458.547211,414.011261 431.320892,413.973358
	C429.368469,413.970642 427.416534,413.605682 425.292480,412.842102
	C425.383057,411.838959 425.645538,411.402863 426.210388,410.823425
	C432.011627,405.214294 437.729553,399.947449 442.935272,394.215454
	C446.641846,390.134125 449.659027,385.426758 452.983887,380.998779
	C472.676819,380.999176 492.369751,380.999573 512.531372,381.000000
	C513.000000,391.687561 513.000000,402.375122 513.000000,413.531342
z"/>
<path fill="#1BA0FF" opacity="1.000000" stroke="none"
	d="
M1.000000,145.468643
	C21.617350,145.000320 42.234699,145.000626 63.561657,145.232590
	C71.548347,152.882507 78.825424,160.300766 86.102501,167.719040
	C83.692955,168.479538 81.287453,169.886063 78.873260,169.901138
	C53.228737,170.061295 27.582836,170.000412 1.468657,170.000183
	C1.000000,161.979095 1.000000,153.958191 1.000000,145.468643
z"/>
<path fill="#000000" opacity="1.000000" stroke="none"
	d="
M4.544917,486.872101
	C9.469118,498.077301 17.679483,505.380493 28.506327,510.002716
	C30.226944,510.737305 31.904711,511.572235 33.301144,512.680420
	C22.407969,513.000000 11.815937,513.000000 1.000000,513.000000
	C1.000000,502.980225 1.000000,492.958771 0.999992,482.468658
	C2.069702,483.567566 3.139421,485.135132 4.544917,486.872101
z"/>
<path fill="#000000" opacity="1.000000" stroke="none"
	d="
M482.468658,513.000000
	C482.893585,512.025452 483.606903,510.555939 484.709229,510.154449
	C493.863525,506.820129 501.060120,501.185455 506.061951,492.393036
	C508.204834,488.502716 510.291046,484.966797 512.688599,481.715454
	C513.000000,492.259857 513.000000,502.519684 513.000000,513.000000
	C502.980194,513.000000 492.958740,513.000000 482.468658,513.000000
z"/>
<path fill="#000000" opacity="1.000000" stroke="none"
	d="
M513.000000,31.531342
	C512.308899,31.540403 511.229950,31.231747 510.983704,30.599007
	C505.737061,17.118528 496.541534,7.723352 482.779846,2.933148
	C482.236938,2.744184 481.862427,2.071406 481.704712,1.312027
	C492.259857,1.000000 502.519684,1.000000 513.000000,1.000000
	C513.000000,11.019819 513.000000,21.041252 513.000000,31.531342
z"/>
<path fill="#000000" opacity="1.000000" stroke="none"
	d="
M31.531342,1.000000
	C30.778605,2.003433 29.700134,3.314696 28.312073,3.959168
	C20.648684,7.517259 13.847538,12.086739 9.019771,19.644032
	C6.458589,24.170282 4.038243,28.378973 1.308949,32.293831
	C1.000000,21.740147 1.000000,11.480293 1.000000,1.000000
	C11.019819,1.000000 21.041252,1.000000 31.531342,1.000000
z"/>
<path fill="#2593FF" opacity="1.000000" stroke="none"
	d="
M4.100253,213.362610
	C79.742828,212.998856 155.319092,212.989426 230.895279,213.054947
	C232.878906,213.056671 234.861832,213.874908 236.943954,214.713470
	C231.865204,229.422806 214.434052,240.961426 200.848465,240.975677
	C148.067719,241.031052 95.286713,241.067734 42.506157,240.949631
	C29.184484,240.919800 18.768616,234.370087 10.364176,224.594910
	C7.676481,221.468872 6.112213,217.376938 4.100253,213.362610
z"/>
<path fill="#E2F3FF" opacity="1.000000" stroke="none"
	d="
M236.060104,296.598541
	C159.689545,296.966095 83.262161,296.974213 6.358781,296.970215
	C13.625194,282.167542 25.689590,273.253113 42.476059,273.133209
	C94.575287,272.761108 146.678955,272.941132 198.780685,273.033508
	C213.108063,273.058929 224.152802,279.679352 232.531509,291.049805
	C233.764847,292.723480 234.849701,294.506622 236.060104,296.598541
z"/>
<path fill="#4072FF" opacity="1.000000" stroke="none"
	d="
M273.094849,376.462585
	C318.960876,375.999146 364.754974,375.993500 410.549072,376.020721
	C412.517944,376.021881 414.486664,376.326447 416.600433,377.093903
	C406.843536,387.831970 396.941681,397.965820 386.735413,408.227264
	C384.009766,411.280640 381.588440,414.206421 378.778900,417.601349
	C371.852539,410.619232 366.097931,404.906952 360.446899,399.093994
	C355.856415,394.372009 350.652618,391.670532 343.919647,393.621277
	C337.224701,395.560974 333.978973,400.419708 332.394836,407.000122
	C312.345825,406.999420 292.756348,406.998901 273.166870,406.998383
	C273.118896,396.974396 273.070892,386.950439 273.094849,376.462585
z"/>
<path fill="#1BA0FF" opacity="1.000000" stroke="none"
	d="
M240.905029,172.535278
	C204.937927,172.999374 169.042191,173.045258 133.147034,172.922256
	C129.922607,172.911209 126.701912,171.807800 123.266144,170.758301
	C134.669235,158.780106 146.285645,147.255295 157.971573,136.138168
	C159.975220,137.364075 161.905045,138.882645 163.844177,138.894623
	C189.506790,139.053177 215.170685,138.999969 240.834259,138.999664
	C240.881699,150.023605 240.929138,161.047546 240.905029,172.535278
z"/>
<path fill="#2F87FF" opacity="1.000000" stroke="none"
	d="
M501.913849,287.580811
	C500.338501,288.591797 498.632660,289.909088 496.924866,289.911652
	C427.991150,290.015198 359.057220,290.013092 290.123474,289.929138
	C288.280304,289.926880 286.438446,288.872742 284.244385,288.129791
	C292.470490,278.402008 302.862762,272.943237 316.002350,272.965149
	C366.415527,273.049255 416.830597,273.222595 467.241211,272.854034
	C481.164368,272.752258 492.294586,277.614532 501.913849,287.580811
z"/>
<path fill="#476AFF" opacity="1.000000" stroke="none"
	d="
M273.094910,407.462280
	C292.756348,406.998901 312.345825,406.999420 332.448792,407.404968
	C334.880005,411.881500 336.038971,416.606842 338.869568,419.891663
	C345.232605,427.275543 352.424805,433.944916 359.279510,440.905090
	C356.334747,441.270050 353.391022,441.942047 350.445099,441.951782
	C324.990997,442.035522 299.536530,442.000000 273.624451,441.999939
	C273.118774,430.641937 273.070862,419.284058 273.094910,407.462280
z"/>
<path fill="#15A6FF" opacity="1.000000" stroke="none"
	d="
M240.905609,138.535767
	C215.170685,138.999969 189.506790,139.053177 163.844177,138.894623
	C161.905045,138.882645 159.975220,137.364075 158.115265,135.848053
	C161.347778,131.971115 164.678116,128.942566 167.624573,125.577866
	C172.165573,120.392311 176.443512,114.976402 180.833038,109.658211
	C183.231705,110.438789 185.623062,111.868874 188.030197,111.895889
	C205.324188,112.089996 222.621353,111.999260 240.375336,111.998108
	C240.881073,120.688820 240.929016,129.380341 240.905609,138.535767
z"/>
<path fill="#CAE8FF" opacity="1.000000" stroke="none"
	d="
M387.039795,408.099670
	C396.941681,397.965820 406.843536,387.831970 416.888641,377.402435
	C420.045715,374.277313 423.140564,371.528473 426.055389,368.600464
	C431.062286,363.570892 436.783081,361.460938 443.649872,364.138855
	C449.945251,366.593903 452.992706,372.002594 452.956787,380.568909
	C449.659027,385.426758 446.641846,390.134125 442.935272,394.215454
	C437.729553,399.947449 432.011627,405.214294 425.794983,410.819336
	C422.142883,410.639038 419.212036,410.088745 416.273529,410.043976
	C408.003876,409.917938 399.729034,410.092651 391.461304,409.914307
	C389.975098,409.882233 388.513031,408.733063 387.039795,408.099670
z"/>
<path fill="#E7F5FF" opacity="1.000000" stroke="none"
	d="
M180.829315,109.245697
	C176.443512,114.976402 172.165573,120.392311 167.624573,125.577866
	C164.678116,128.942566 161.347778,131.971115 158.045746,135.440399
	C146.285645,147.255295 134.669235,158.780106 122.891838,170.607025
	C119.268066,173.677338 116.079369,176.922729 112.280037,179.105011
	C106.151917,182.624893 100.176758,181.398758 95.198898,176.464493
	C92.367203,173.657578 89.537537,170.848602 86.404724,167.879807
	C78.825424,160.300766 71.548347,152.882507 64.015213,145.235260
	C59.272430,136.062302 60.814499,127.922806 67.840866,123.461792
	C74.087402,119.495895 81.325386,120.239655 87.009506,125.798706
	C93.197189,131.850250 99.152840,138.139038 105.802238,144.929550
	C118.085808,132.624619 130.023087,120.666580 142.119324,108.405502
	C146.096359,104.401184 149.935822,100.721664 153.727661,96.993690
	C159.788742,91.034676 165.863586,89.496460 172.193237,92.375717
	C178.338898,95.171272 181.198318,100.622719 180.829315,109.245697
z"/>
<path fill="#C1E4FF" opacity="1.000000" stroke="none"
	d="
M386.735413,408.227264
	C388.513031,408.733063 389.975098,409.882233 391.461304,409.914307
	C399.729034,410.092651 408.003876,409.917938 416.273529,410.043976
	C419.212036,410.088745 422.142883,410.639038 425.492615,410.962677
	C425.645538,411.402863 425.383057,411.838959 425.018463,412.510773
	C414.970215,422.603027 405.024109,432.459564 394.907410,442.612915
	C392.679230,444.841827 390.674408,446.834045 388.554321,448.694946
	C381.995575,454.451843 373.796722,454.422058 367.324066,448.562256
	C364.734192,446.217590 362.331573,443.666077 359.561615,441.056915
	C352.424805,433.944916 345.232605,427.275543 338.869568,419.891663
	C336.038971,416.606842 334.880005,411.881500 332.908325,407.405151
	C333.978973,400.419708 337.224701,395.560974 343.919647,393.621277
	C350.652618,391.670532 355.856415,394.372009 360.446899,399.093994
	C366.097931,404.906952 371.852539,410.619232 378.778900,417.601349
	C381.588440,414.206421 384.009766,411.280640 386.735413,408.227264
z"/>
</svg>
