<svg version="1.1" id="Layer_1" xmlns="http://www.w3.org/2000/svg" xmlns:xlink="http://www.w3.org/1999/xlink" x="0px" y="0px"
	 width="100%" viewBox="0 0 512 512" enable-background="new 0 0 512 512" xml:space="preserve">
<path fill="#FF72D0" opacity="1.000000" stroke="none"
	d="
M269.159058,230.946869
	C273.531525,225.692017 277.903992,220.437164 282.901093,215.226151
	C284.410187,216.649597 285.458374,217.951569 286.154816,219.420334
	C298.586914,245.639664 304.698883,273.379059 306.017395,302.269867
	C306.196442,306.193420 306.548218,310.109070 306.881805,314.415283
	C307.035522,316.087219 307.127472,317.372253 307.149536,319.142944
	C307.046631,361.931152 307.256500,404.236328 306.794281,446.534149
	C306.690491,456.032288 304.758148,465.618805 302.714417,474.956024
	C300.784729,483.772003 304.829620,489.975006 313.852936,489.991852
	C331.007385,490.023895 348.171234,489.643646 365.314209,490.087921
	C388.981415,490.701294 407.028809,472.316101 407.003113,448.182373
	C406.952576,400.716034 407.179749,353.248322 406.850739,305.784180
	C406.770691,294.233368 405.668457,282.583191 403.827179,271.173828
	C400.321686,249.452072 391.077118,230.133835 375.044037,214.936661
	C367.681885,207.958328 358.395996,203.009583 350.449890,197.079681
	C354.345123,197.004166 357.779236,197.114471 361.199219,196.943115
	C365.511627,196.727051 369.812531,196.281067 374.118378,195.934265
	C382.813080,201.510361 392.384583,206.115372 399.948212,212.944244
	C407.067474,219.371979 412.658569,227.770859 417.865387,235.973236
	C425.751770,248.396805 429.182678,262.628723 431.909882,276.933136
	C432.765625,281.421722 432.962219,286.091064 432.967865,290.678284
	C433.035614,345.666382 433.164215,400.655365 432.898285,455.642273
	C432.834351,468.854126 427.239899,480.411896 418.918488,490.568878
	C410.257629,501.140137 399.235687,508.092896 386.031708,511.608582
	C385.768524,511.678650 385.597565,512.094910 385.691772,512.674805
	C356.979095,513.000000 327.958221,513.000000 298.773560,512.682251
	C298.133820,511.932892 297.720459,511.239380 297.172546,511.108337
	C286.184387,508.480164 277.162476,502.470642 269.030396,494.534302
	C270.328613,492.306274 271.576477,490.384247 272.957336,488.563080
	C281.361145,477.480072 285.876678,464.991425 285.903076,451.093536
	C285.990234,405.168518 286.398499,359.235321 285.646118,313.322266
	C285.384003,297.328552 282.953491,281.220703 279.922455,265.471161
	C277.658691,253.708252 272.840027,242.437042 269.159058,230.946869
z"/>
<path fill="#2ED3F9" opacity="1.000000" stroke="none"
	d="
M269.003296,230.619934
	C272.840027,242.437042 277.658691,253.708252 279.922455,265.471161
	C282.953491,281.220703 285.384003,297.328552 285.646118,313.322266
	C286.398499,359.235321 285.990234,405.168518 285.903076,451.093536
	C285.876678,464.991425 281.361145,477.480072 272.957336,488.563080
	C271.576477,490.384247 270.328613,492.306274 268.706299,494.667114
	C259.789795,502.354523 250.852310,508.947906 239.510529,511.270081
	C239.233887,511.326752 239.165497,512.400574 239.000000,513.000000
	C195.312439,513.000000 151.624878,513.000000 107.468658,513.000000
	C106.043503,512.205811 105.210243,511.038605 104.111320,510.675537
	C93.908112,507.304810 85.094147,501.752106 77.618179,494.076416
	C76.039635,492.455688 74.719627,490.583191 73.604385,488.459503
	C119.578751,488.060516 165.229233,488.037689 210.879700,487.993805
	C241.041718,487.964783 263.919495,465.132751 263.971771,434.884399
	C264.033417,399.229858 264.594299,363.559570 263.697968,327.927307
	C263.274750,311.103302 261.235138,294.076904 257.688232,277.625061
	C250.258713,243.164215 232.946671,214.443069 204.325699,192.939453
	C200.132629,189.789078 196.427841,184.955902 194.447449,180.105118
	C190.117096,169.498367 182.639038,165.024918 171.653641,165.075943
	C158.825195,165.135544 145.996094,165.057083 133.167282,165.038528
	C133.106155,158.075592 133.045029,151.112656 133.458069,143.606537
	C160.299210,143.091705 186.666183,143.120056 213.033142,143.148407
	C213.359955,150.052032 213.579498,156.962921 214.046631,163.857040
	C214.437897,169.631439 217.453613,174.545197 222.063431,177.312958
	C243.320999,190.076141 258.171051,208.292419 269.003296,230.619934
z"/>
<path fill="#F2EED9" opacity="1.000000" stroke="none"
	d="
M121.152977,25.986187
	C119.322578,14.794331 124.438095,7.145951 133.305206,1.283578
	C176.020889,1.000000 219.041794,1.000000 262.531342,1.000000
	C263.598999,2.094240 263.989716,3.392741 264.830322,4.250072
	C270.994629,10.536967 276.896881,17.147978 283.572754,22.847446
	C290.436249,28.707132 288.553345,37.597157 283.497437,42.064079
	C282.506927,42.939201 281.603973,43.913448 280.306396,44.626957
	C276.504150,40.637043 273.017914,36.896233 269.617554,33.078899
	C264.989471,27.883348 259.229218,25.921747 252.312439,25.939692
	C208.592865,26.053123 164.872849,25.990618 121.152977,25.986187
z"/>
<path fill="#C6E3F7" opacity="1.000000" stroke="none"
	d="
M361.531738,1.000001 
	C362.244873,1.747952 362.489777,2.495903 362.874481,4.007960 
	C363.142334,5.753971 363.194550,6.752859 363.410034,7.715178 
	C365.723785,18.047609 361.668610,27.811493 351.809357,31.243841 
	C346.395233,33.128677 339.892700,31.887005 333.880920,32.055038 
	C328.542419,23.822380 330.495636,11.167657 339.878754,4.556456 
	C341.178253,3.640858 342.368622,2.570346 343.304749,1.285775 
	C349.021149,1.000000 355.042297,1.000000 361.531738,1.000001 
z"/>
<path fill="#FF94E6" opacity="1.000000" stroke="none"
	d="
M306.820068,314.028381 
	C306.548218,310.109070 306.196442,306.193420 306.017395,302.269867 
	C304.698883,273.379059 298.586914,245.639664 286.154816,219.420334 
	C285.458374,217.951569 284.410187,216.649597 283.214539,215.109833 
	C290.454651,206.770355 299.304504,200.504303 310.197571,196.354660 
	C310.580444,196.024734 310.994568,196.038620 311.263916,196.365173 
	C324.349670,196.841324 337.166046,196.990891 349.982452,197.140457 
	C358.395996,203.009583 367.681885,207.958328 375.044037,214.936661 
	C391.077118,230.133835 400.321686,249.452072 403.827179,271.173828 
	C405.668457,282.583191 406.770691,294.233368 406.850739,305.784180 
	C407.179749,353.248322 406.952576,400.716034 407.003113,448.182373 
	C407.028809,472.316101 388.981415,490.701294 365.314209,490.087921 
	C348.171234,489.643646 331.007385,490.023895 313.852936,489.991852 
	C304.829620,489.975006 300.784729,483.772003 302.714417,474.956024 
	C304.758148,465.618805 306.690491,456.032288 306.794281,446.534149 
	C307.256500,404.236328 307.046631,361.931152 307.373291,319.442505 
	C313.948242,339.029877 331.054230,349.728577 349.721222,345.673370 
	C366.055389,342.124969 379.957214,326.422699 377.118622,305.303009 
	C374.054169,282.502899 346.707458,268.426422 326.234222,279.571442 
	C312.612122,286.986877 306.459290,298.693115 306.820068,314.028381 
z"/>
<path fill="#F2EED9" opacity="1.000000" stroke="none" 
	d="
M125.157516,125.986519 
	C125.104866,115.333191 124.993385,104.679695 125.025024,94.026619 
	C125.040253,88.901222 129.902954,84.105461 135.068939,84.019897 
	C140.534561,83.929359 146.002823,83.999573 152.014282,83.999573 
	C152.014282,74.465401 152.014282,65.201958 152.544128,55.471134 
	C157.218246,55.003105 161.386795,55.291710 165.502045,54.945885 
	C176.494339,54.022141 181.492691,60.033737 181.117828,70.249649 
	C180.605896,84.200859 180.991882,84.215019 195.126572,83.938538 
	C198.115143,83.966278 201.103699,83.994026 204.537918,84.555069 
	C204.984039,94.729561 205.064514,104.371613 204.961716,114.011711 
	C204.865753,123.010048 201.796356,125.995911 192.978302,125.996307 
	C170.371368,125.997337 147.764450,125.990318 125.157516,125.986519 
z"/>
<path fill="#E5DDBD" opacity="1.000000" stroke="none" 
	d="
M195.078705,83.476135 
	C180.991882,84.215019 180.605896,84.200859 181.117828,70.249649 
	C181.492691,60.033737 176.494339,54.022141 165.502045,54.945885 
	C161.386795,55.291710 157.218246,55.003105 152.615448,55.008080 
	C152.156906,51.222542 152.156906,47.432686 152.156906,42.859520 
	C138.051758,44.431572 126.127510,41.904297 121.175278,26.354950 
	C164.872849,25.990618 208.592865,26.053123 252.312439,25.939692 
	C259.229218,25.921747 264.989471,27.883348 269.617554,33.078899 
	C273.017914,36.896233 276.504150,40.637043 279.992310,44.763519 
	C274.838409,53.049404 264.746185,53.037601 259.370880,46.178673 
	C257.958618,44.376602 254.704788,43.175713 252.277969,43.144375 
	C233.367981,42.900234 214.453430,43.009407 195.030823,43.009407 
	C195.030823,56.543667 195.030823,69.778694 195.078705,83.476135 
z"/>
<path fill="#E4DDBE" opacity="1.000000" stroke="none" 
	d="
M125.079712,126.439270 
	C147.764450,125.990318 170.371368,125.997337 192.978302,125.996307 
	C201.796356,125.995911 204.865753,123.010048 204.961716,114.011711 
	C205.064514,104.371613 204.984039,94.729561 204.981537,84.630714 
	C209.299698,84.255051 213.802383,82.758560 217.693802,86.126595 
	C220.751587,88.773109 222.060226,91.979279 222.039566,95.967300 
	C221.975937,108.239761 222.021729,120.512764 222.013992,132.785553 
	C222.010300,138.647797 219.866409,141.302368 213.410614,143.088013 
	C186.666183,143.120056 160.299210,143.091705 133.473450,143.153442 
	C123.674995,141.060913 124.949272,133.677155 125.079712,126.439270 
z"/>
<path fill="#C6E3F7" opacity="1.000000" stroke="none" 
	d="
M387.967896,109.099731 
	C379.852356,96.512573 382.564972,78.906494 391.822693,68.395676 
	C401.972870,56.871586 419.528931,53.732891 433.913666,60.930412 
	C434.369873,62.438911 434.605347,63.236309 434.877502,64.020988 
	C439.040192,76.023270 438.104279,87.520515 429.913391,97.422371 
	C420.321655,109.017754 408.121063,113.903877 393.035797,109.257401 
	C391.478088,108.777611 389.663361,109.132271 387.967896,109.099731 
z"/>
<path fill="#FFE266" opacity="1.000000" stroke="none"
	d="
M310.868164,154.974594
	C311.437164,141.229004 319.009979,133.977859 332.841095,134.008087
	C341.454102,134.026901 350.066925,134.126007 358.593933,134.862762
	C358.337463,146.306580 358.129730,157.076279 358.007568,167.846939
	C357.903473,177.025101 354.086853,180.969528 345.028381,180.991638
	C333.728546,181.019211 322.428528,180.993271 311.082764,180.524384
	C310.980652,171.697083 310.924408,163.335846 310.868164,154.974594
z"/>
<path fill="#F9C551" opacity="1.000000" stroke="none"
	d="
M311.128601,180.990448
	C322.428528,180.993271 333.728546,181.019211 345.028381,180.991638
	C354.086853,180.969528 357.903473,177.025101 358.007568,167.846939
	C358.129730,157.076279 358.337463,146.306580 358.816620,135.245651
	C367.617035,137.046631 374.152649,146.015503 374.049652,155.522568
	C373.907043,168.682510 374.020020,181.845230 374.070984,195.470520
	C369.812531,196.281067 365.511627,196.727051 361.199219,196.943115
	C357.779236,197.114471 354.345123,197.004166 350.449890,197.079681
	C337.166046,196.990891 324.349670,196.841324 311.266052,195.896393
	C311.042114,190.397507 311.085358,185.693985 311.128601,180.990448
z"/>
<path fill="#ABCFE1" opacity="1.000000" stroke="none"
	d="
M388.086304,109.426407
	C389.663361,109.132271 391.478088,108.777611 393.035797,109.257401
	C408.121063,113.903877 420.321655,109.017754 429.913391,97.422371
	C438.104279,87.520515 439.040192,76.023270 434.877502,64.020988
	C434.605347,63.236309 434.369873,62.438911 434.087891,61.261383
	C443.884796,65.534958 449.555817,73.633545 451.926880,83.877434
	C455.329834,98.579430 450.179657,110.705757 438.607178,119.742294
	C427.323517,128.553268 408.695862,128.739609 397.249969,119.619858
	C393.802795,116.873253 391.196320,113.071487 388.086304,109.426407
z"/>
<path fill="#ACCFE1" opacity="1.000000" stroke="none"
	d="
M333.928528,32.406078
	C339.892700,31.887005 346.395233,33.128677 351.809357,31.243841
	C361.668610,27.811493 365.723785,18.047609 363.410034,7.715178
	C363.194550,6.752859 363.142334,5.753971 363.026581,4.340365
	C371.523132,7.125639 376.457581,20.347065 372.158752,29.826492
	C368.868469,37.081886 363.801392,41.843124 356.047882,42.912632
	C346.763733,44.193283 339.112000,40.969330 333.928528,32.406078
z"/>
<path fill="#FFFF00" opacity="1.000000" stroke="none"
	d="
M311.082764,180.524384
	C311.085358,185.693985 311.042114,190.397507 310.996704,195.569824
	C310.994568,196.038620 310.580444,196.024734 310.373291,196.019745
	C310.156433,182.485596 310.146698,168.956421 310.502563,155.200928
	C310.924408,163.335846 310.980652,171.697083 311.082764,180.524384
z"/>
<path fill="#88E9FF" opacity="1.000000" stroke="none"
	d="
M133.006012,165.371918
	C145.996094,165.057083 158.825195,165.135544 171.653641,165.075943
	C182.639038,165.024918 190.117096,169.498367 194.447449,180.105118
	C196.427841,184.955902 200.132629,189.789078 204.325699,192.939453
	C232.946671,214.443069 250.258713,243.164215 257.688232,277.625061
	C261.235138,294.076904 263.274750,311.103302 263.697968,327.927307
	C264.594299,363.559570 264.033417,399.229858 263.971771,434.884399
	C263.919495,465.132751 241.041718,487.964783 210.879700,487.993805
	C165.229233,488.037689 119.578751,488.060516 73.469238,488.156860
	C64.627563,476.945007 60.787426,464.451019 60.877205,450.237305
	C61.192757,400.280945 60.511005,350.314331 61.231262,300.366364
	C61.535488,279.269135 66.292885,258.602142 74.039055,238.818634
	C81.785385,219.034729 93.537781,201.986115 109.581512,188.019669
	C113.361298,184.729294 117.365120,181.490356 121.761765,179.165619
	C127.510880,176.125778 130.587433,171.370056 133.006012,165.371918
M126.332611,418.072205
	C130.725906,424.919617 134.507050,432.267365 139.621674,438.525238
	C158.650055,461.806793 185.304260,462.071686 205.200668,439.663544
	C214.306610,429.408020 220.508011,417.516083 224.985168,404.686584
	C236.624222,371.334259 238.014969,337.222443 231.529419,302.761017
	C227.612564,281.948608 220.398239,262.343964 206.758316,245.644165
	C187.580063,222.163574 161.472061,220.905411 141.301636,243.478699
	C134.334274,251.276047 128.676773,260.734406 124.350647,270.306183
	C112.903984,295.632599 109.608322,322.599152 110.705223,350.237488
	C111.632530,373.602631 115.998878,396.125824 126.332611,418.072205
z"/>
<path fill="#89E8FF" opacity="1.000000" stroke="none"
	d="
M306.881836,314.415283
	C306.459290,298.693115 312.612122,286.986877 326.234222,279.571442
	C346.707458,268.426422 374.054169,282.502899 377.118622,305.303009
	C379.957214,326.422699 366.055389,342.124969 349.721222,345.673370
	C331.054230,349.728577 313.948242,339.029877 307.443146,318.956787
	C307.127472,317.372253 307.035522,316.087219 306.881836,314.415283
z"/>
<path fill="#FFE266" opacity="1.000000" stroke="none"
	d="
M126.181549,417.728699
	C115.998878,396.125824 111.632530,373.602631 110.705223,350.237488
	C109.608322,322.599152 112.903984,295.632599 124.350647,270.306183
	C128.676773,260.734406 134.334274,251.276047 141.301636,243.478699
	C161.472061,220.905411 187.580063,222.163574 206.758316,245.644165
	C220.398239,262.343964 227.612564,281.948608 231.529419,302.761017
	C238.014969,337.222443 236.624222,371.334259 224.985168,404.686584
	C220.508011,417.516083 214.306610,429.408020 205.200668,439.663544
	C185.304260,462.071686 158.650055,461.806793 139.621674,438.525238
	C134.507050,432.267365 130.725906,424.919617 126.181549,417.728699
z"/>
</svg>