<?xml version="1.0" encoding="UTF-8" standalone="no"?> <svg id="Layer_1" data-name="Layer 1" xmlns="http://www.w3.org/2000/svg" viewBox="0 0 128 128"><defs><style>.cls-1{fill:#ffc03b;}.cls-2{fill:#db9130;}.cls-3{fill:#ffd48f;}.cls-4{fill:#ffbc9a;}.cls-5{fill:#ff5d60;}.cls-6{fill:#fff27f;}</style></defs><title>sunscreen</title><path class="cls-1" d="M55.91,115v6.62A4.38,4.38,0,0,1,51.54,126H22.46a4.38,4.38,0,0,1-4.37-4.38V115a1,1,0,0,1,1-1H54.91A1,1,0,0,1,55.91,115Z"/><rect class="cls-2" x="18.09" y="105.71" width="37.82" height="12.29" rx="1" ry="1"/><path class="cls-1" d="M64,5.06l-.47,8.08-.12,2-5,86.1a6.72,6.72,0,0,1-6.78,6.47H22.37a6.72,6.72,0,0,1-6.78-6.49l-5-86.08-.12-2L10,5.06a1,1,0,0,1,.27-.75A1,1,0,0,1,11,4H63a1,1,0,0,1,.73.31A1,1,0,0,1,64,5.06Z"/><path class="cls-3" d="M96.5,100.14,85.92,94a2.28,2.28,0,0,1-1.11-1.71,4.26,4.26,0,0,0-7.45-2.34l-9.12,10.42A1,1,0,0,0,69,102H96a1,1,0,0,0,.5-1.86Z"/><path class="cls-4" d="M96.75,100H67.25a3.75,3.75,0,0,0-3.75,3.75V108a1,1,0,0,0,1,1h35a1,1,0,0,0,1-1v-4.25A3.75,3.75,0,0,0,96.75,100Z"/><path class="cls-5" d="M100.94,107H63.06A4.07,4.07,0,0,0,59,111.06v10.25A4.69,4.69,0,0,0,63.69,126h36.62a4.69,4.69,0,0,0,4.69-4.69V111.06A4.07,4.07,0,0,0,100.94,107Z"/><path class="cls-3" d="M87,117.25a1,1,0,0,0-1.08-.22,3.34,3.34,0,0,1-1.25.24,3.44,3.44,0,0,1-3.44-3.44,3.34,3.34,0,0,1,.24-1.25,1,1,0,0,0-1.29-1.3,5.44,5.44,0,1,0,7,7A1,1,0,0,0,87,117.25Z"/><rect class="cls-6" x="18.09" y="116" width="37.82" height="2"/><path class="cls-2" d="M38.63,119.43H34.22a3.42,3.42,0,0,0-3.42,3.42V125a1,1,0,0,0,1,1H41a1,1,0,0,0,1-1v-2.15A3.42,3.42,0,0,0,38.63,119.43Z"/><path class="cls-2" d="M36.42,63.34a8.06,8.06,0,1,1,8.14-8.06A8.11,8.11,0,0,1,36.42,63.34Zm0-14.12a6.06,6.06,0,1,0,6.14,6.06A6.1,6.1,0,0,0,36.42,49.23Z"/><path class="cls-2" d="M44.59,64.37a1,1,0,0,1-.7-.29l-.82-.81a1,1,0,1,1,1.41-1.42l.82.81a1,1,0,0,1-.7,1.71Z"/><path class="cls-2" d="M29.07,49a1,1,0,0,1-.7-.29l-.82-.81A1,1,0,1,1,29,46.49l.82.81a1,1,0,0,1-.7,1.71Z"/><path class="cls-2" d="M43.78,49a1,1,0,0,1-.7-1.71l.82-.81a1,1,0,1,1,1.41,1.42l-.82.81A1,1,0,0,1,43.78,49Z"/><path class="cls-2" d="M28.25,64.37a1,1,0,0,1-.7-1.71l.82-.81a1,1,0,0,1,1.41,1.42l-.82.81A1,1,0,0,1,28.25,64.37Z"/><path class="cls-2" d="M48,56.29H46.82a1,1,0,1,1,0-2H48a1,1,0,0,1,0,2Z"/><path class="cls-2" d="M26,56.29H24.87a1,1,0,0,1,0-2H26a1,1,0,1,1,0,2Z"/><path class="cls-2" d="M36.42,46a1,1,0,0,1-1-1V43.86a1,1,0,0,1,2,0V45A1,1,0,0,1,36.42,46Z"/><path class="cls-2" d="M36.42,67.71a1,1,0,0,1-1-1V65.57a1,1,0,0,1,2,0v1.14A1,1,0,0,1,36.42,67.71Z"/><path class="cls-6" d="M44.51,75.71H28.33a1,1,0,1,1,0-2H44.51a1,1,0,0,1,0,2Z"/><path class="cls-6" d="M44.51,79.14H28.33a1,1,0,1,1,0-2H44.51a1,1,0,0,1,0,2Z"/><path class="cls-6" d="M42.2,91.71H30.64a1,1,0,0,1,0-2H42.2a1,1,0,0,1,0,2Z"/><path class="cls-6" d="M42.2,95.14H30.64a1,1,0,0,1,0-2H42.2a1,1,0,0,1,0,2Z"/><path class="cls-6" d="M42.2,98.57H30.64a1,1,0,0,1,0-2H42.2a1,1,0,0,1,0,2Z"/><path class="cls-6" d="M44.51,82.57H28.33a1,1,0,1,1,0-2H44.51a1,1,0,0,1,0,2Z"/><polygon class="cls-6" points="58.22 13.14 58.22 4 56.22 4 56.22 13.14 54.76 13.14 54.76 4 52.76 4 52.76 13.14 51.29 13.14 51.29 4 49.29 4 49.29 13.14 47.82 13.14 47.82 4 45.82 4 45.82 13.14 44.36 13.14 44.36 4 42.36 4 42.36 13.14 40.89 13.14 40.89 4 38.89 4 38.89 13.14 37.42 13.14 37.42 4 35.42 4 35.42 13.14 33.96 13.14 33.96 4 31.96 4 31.96 13.14 30.49 13.14 30.49 4 28.49 4 28.49 13.14 27.02 13.14 27.02 4 25.02 4 25.02 13.14 23.56 13.14 23.56 4 21.56 4 21.56 13.14 20.09 13.14 20.09 4 18.09 4 18.09 13.14 16.62 13.14 16.62 4 14.62 4 14.62 13.14 10.47 13.14 10.59 15.14 63.41 15.14 63.53 13.14 58.22 13.14"/><path class="cls-5" d="M126,90.88v26.24a8.89,8.89,0,0,1-8.88,8.88H107a1,1,0,0,1-1-1V83a1,1,0,0,1,1-1h10.12A8.89,8.89,0,0,1,126,90.88Z"/><rect class="cls-4" x="112.12" y="82" width="2" height="44"/></svg>