<svg version="1.1" id="Layer_1" xmlns="http://www.w3.org/2000/svg" xmlns:xlink="http://www.w3.org/1999/xlink" x="0px" y="0px"
	 width="100%" viewBox="0 0 512 512" enable-background="new 0 0 512 512" xml:space="preserve">
<path fill="#F44336" opacity="1.000000" stroke="none"
	d="
M0.999998,231.000000
	C1.000000,227.307098 1.000000,223.614182 1.330601,219.343948
	C3.151124,216.634583 4.305343,214.131180 6.185911,212.431320
	C17.671045,202.049728 29.345114,191.877563 40.909641,181.583267
	C53.592121,170.293808 66.231300,158.955627 78.876328,147.624146
	C91.893036,135.959579 105.054054,124.449638 117.854149,112.551689
	C129.247208,101.961624 141.950058,93.722389 156.381348,87.845474
	C174.274231,80.558884 192.765793,78.884743 211.436722,82.413826
	C228.032639,85.550705 243.353302,92.445961 256.968872,103.163841
	C272.369446,91.187439 289.904602,83.668312 309.011780,81.307381
	C328.001984,78.960907 346.470093,82.409775 364.151947,90.450142
	C382.651337,98.862267 396.596741,113.022095 411.486603,126.044838
	C419.315765,132.892288 426.835510,140.092163 434.578491,147.039856
	C450.034943,160.908783 465.551208,174.711044 481.037567,188.546677
	C484.853546,191.955917 488.747040,195.286224 492.433746,198.830795
	C499.355072,205.485306 506.151581,212.269653 513.000000,219.000000
	C513.000000,222.692902 513.000000,226.385818 512.640015,230.698853
	C509.790436,240.047791 507.628265,248.886337 504.746429,257.483643
	C497.730865,278.412994 487.852844,297.991211 475.840149,316.494843
	C461.636505,338.373352 444.160614,357.449066 424.205933,374.046967
	C404.441498,390.486542 382.236237,403.144531 358.515228,413.228668
	C332.472137,424.299927 305.247467,430.715210 277.236816,432.730713
	C255.662460,434.283112 233.840714,433.853638 212.432739,429.868134
	C187.461731,425.219360 163.413574,417.715668 140.487473,406.357758
	C118.945244,395.685425 99.173424,382.592255 81.313988,366.677277
	C63.404350,350.717560 47.877838,332.484894 35.196354,312.157684
	C23.749083,293.808777 14.294107,274.335022 7.867378,253.551086
	C5.546071,246.044006 3.287301,238.517593 0.999998,231.000000
M99.858345,211.000290
	C81.498154,215.052475 63.823563,221.141006 45.407604,228.944504
	C115.931252,285.199829 195.130432,310.699585 284.044159,303.796204
	C352.917206,298.448761 414.151093,273.145966 468.406891,228.814346
	C449.803406,221.145035 432.011627,214.744278 412.733215,210.484253
	C373.201111,200.527908 332.927521,195.941025 292.303833,194.020309
	C243.944611,191.733856 195.762466,193.811142 147.911606,201.240677
	C132.030579,203.706436 116.382057,207.669693 99.858345,211.000290
z"/>


<path fill="#6D4C41" opacity="1.000000" stroke="none" 
	d="
M413.360535,210.961746
	C432.011627,214.744278 449.803406,221.145035 468.406891,228.814346
	C414.151093,273.145966 352.917206,298.448761 284.044159,303.796204
	C195.130432,310.699585 115.931252,285.199829 45.407604,228.944504
	C63.823563,221.141006 81.498154,215.052475 100.370056,211.325226
	C110.066940,231.067566 125.566483,240.901398 146.879288,240.944183
	C220.368118,241.091721 293.857727,241.119156 367.346344,240.927460
	C388.874298,240.871323 404.402832,230.748154 413.360535,210.961746
z"/>
<path fill="#FAF9F9" opacity="1.000000" stroke="none" 
	d="
M413.046875,210.722992
	C404.402832,230.748154 388.874298,240.871323 367.346344,240.927460
	C293.857727,241.119156 220.368118,241.091721 146.879288,240.944183
	C125.566483,240.901398 110.066940,231.067566 100.754509,211.299240
	C116.382057,207.669693 132.030579,203.706436 147.911606,201.240677
	C195.762466,193.811142 243.944611,191.733856 292.303833,194.020309
	C332.927521,195.941025 373.201111,200.527908 413.046875,210.722992
z"/>
</svg>