<svg version="1.1" id="Layer_1" xmlns="http://www.w3.org/2000/svg" xmlns:xlink="http://www.w3.org/1999/xlink" x="0px" y="0px"
     width="200" height="150" viewBox="0 0 512 512" enable-background="new 0 0 512 512" xml:space="preserve">
<path fill="#FFD15C" opacity="1.000000" stroke="none"
	d="
M1.000000,357.000000
	C1.000000,269.645782 1.000000,182.291550 1.322142,94.286392
	C4.939324,79.575455 16.457096,69.413155 32.418289,69.141853
	C59.897545,68.674797 87.391685,69.083275 114.931458,69.357330
	C114.983330,69.590355 115.097992,70.054504 115.043762,70.516983
	C114.989525,98.352776 114.989525,125.726082 114.989525,153.099396
	C115.375923,153.324738 115.762314,153.550079 116.148712,153.775421
	C119.664604,149.676956 123.180496,145.578506 127.683838,140.328979
	C132.356796,145.845505 136.103226,150.268250 140.878174,155.905182
	C145.277893,150.578644 149.043243,146.020111 153.794357,140.268173
	C158.674332,145.733322 162.518127,150.038040 167.118790,155.190369
	C171.155563,150.363297 174.879959,145.909744 179.454468,140.439667
	C184.107376,145.912140 187.864502,150.331039 192.571594,155.867233
	C197.012741,150.424271 200.751007,145.842773 204.508469,141.237732
	C209.319550,145.817413 212.914978,149.239944 216.510422,152.662460
	C216.903046,152.385651 217.295685,152.108826 217.688309,151.832016
	C217.688309,124.601723 217.688309,97.371437 217.791687,69.876045
	C217.951782,69.429916 218.008514,69.248901 218.529160,69.042114
	C245.636703,69.010902 272.280396,68.967445 298.923950,69.012970
	C317.646576,69.044960 332.366882,83.601372 332.081238,102.020988
	C331.755920,122.996765 332.051971,143.982178 332.043945,165.432831
	C331.990784,229.570007 331.971619,293.237762 331.492065,356.981201
	C282.720306,357.071442 234.408859,357.050446 186.097794,357.181458
	C182.918610,357.190063 181.385529,355.861298 179.839661,353.434479
	C173.084793,342.830383 164.157349,334.463043 152.979095,328.681976
	C118.196777,310.693512 78.583244,321.077087 56.763870,353.647034
	C55.685360,355.256958 53.279999,356.927368 51.471405,356.950867
	C34.650238,357.169678 17.824450,357.033356 1.000000,357.000000
M217.636444,153.456635
	C217.636444,153.456635 217.435745,153.325333 217.435745,153.325333
	C217.435745,153.325333 217.454666,153.590820 217.636444,153.456635
z"/>
<path fill="#344B5E" opacity="1.000000" stroke="none"
	d="
M513.000000,393.531342
	C499.009003,394.002563 485.018036,394.005096 470.256409,393.754333
	C468.757355,380.587555 465.199554,368.923279 455.926788,359.258789
	C443.671783,346.486145 429.345795,340.669250 411.429779,342.804291
	C387.517029,345.653900 367.051025,367.637512 366.965240,394.109100
	C318.633606,394.073212 270.302002,394.033081 221.970383,394.003723
	C204.970444,393.993378 187.970490,394.009521 170.342773,393.672943
	C169.477280,391.877045 169.062241,390.425720 169.029526,388.965881
	C168.732101,375.693542 162.593033,364.824982 153.380295,356.230225
	C141.052826,344.729614 126.077354,339.712097 109.001266,343.039276
	C98.077873,345.167633 88.786331,350.535950 81.203674,358.458984
	C71.756882,368.329773 67.774879,380.651154 66.965118,394.109070
	C45.289185,394.073151 23.613249,394.037201 1.468657,394.000641
	C1.000000,381.979095 1.000000,369.958221 1.000000,357.468658
	C17.824450,357.033356 34.650238,357.169678 51.471405,356.950867
	C53.279999,356.927368 55.685360,355.256958 56.763870,353.647034
	C78.583244,321.077087 118.196777,310.693512 152.979095,328.681976
	C164.157349,334.463043 173.084793,342.830383 179.839661,353.434479
	C181.385529,355.861298 182.918610,357.190063 186.097794,357.181458
	C234.408859,357.050446 282.720306,357.071442 331.959778,357.057251
	C337.886627,357.071625 342.911377,356.774139 347.876801,357.188171
	C352.740356,357.593689 355.451813,355.855927 358.275909,351.713074
	C371.234772,332.703033 389.537720,321.845154 412.441010,320.275208
	C441.236481,318.301361 463.824738,329.916138 480.096252,353.850250
	C481.121948,355.358978 483.336426,356.874023 485.060516,356.949188
	C491.703705,357.238800 498.372375,356.944092 505.031525,356.867218
	C507.392303,356.911072 509.753052,356.954895 512.556885,356.999390
	C513.000000,369.020905 513.000000,381.041779 513.000000,393.531342
z"/>
<path fill="#FF7058" opacity="1.000000" stroke="none"
	d="
M505.019501,356.407898
	C498.372375,356.944092 491.703705,357.238800 485.060516,356.949188
	C483.336426,356.874023 481.121948,355.358978 480.096252,353.850250
	C463.824738,329.916138 441.236481,318.301361 412.441010,320.275208
	C389.537720,321.845154 371.234772,332.703033 358.275909,351.713074
	C355.451813,355.855927 352.740356,357.593689 347.876801,357.188171
	C342.911377,356.774139 337.886627,357.071625 332.420166,356.981567
	C331.971619,293.237762 331.990784,229.570007 332.043945,165.432831
	C365.198120,164.975403 398.318512,164.924164 431.438324,165.040894
	C440.472229,165.072739 449.315338,166.061386 457.837402,169.808212
	C469.623871,174.990280 478.708557,183.343704 482.675415,195.102676
	C490.848389,219.330032 497.523895,244.063461 504.733032,268.612885
	C505.186279,270.156311 504.990234,271.908661 504.991180,273.563873
	C505.006592,301.025452 505.005157,328.487000 505.019501,356.407898
M479.044556,268.212799
	C473.335541,248.281418 467.772583,228.306610 461.861938,208.435211
	C458.390564,196.764709 449.500153,189.993073 437.514130,189.927612
	C410.685059,189.781082 383.854340,189.937866 356.217896,190.072388
	C355.893463,191.120300 355.288086,192.167587 355.285797,193.216202
	C355.232758,217.699203 355.294830,242.182556 355.188995,266.665222
	C355.173950,270.147675 356.720001,270.792694 359.747223,270.787659
	C398.220581,270.723938 436.694122,270.762970 475.167358,270.672638
	C476.482758,270.669556 477.795624,269.587646 479.044556,268.212799
z"/>
<path fill="#F2F2F2" opacity="1.000000" stroke="none"
	d="
M217.688309,70.141151
	C217.688309,97.371437 217.688309,124.601723 217.688309,151.832016
	C217.295685,152.108826 216.903046,152.385651 216.510422,152.662460
	C212.914978,149.239944 209.319550,145.817413 204.508469,141.237732
	C200.751007,145.842773 197.012741,150.424271 192.571594,155.867233
	C187.864502,150.331039 184.107376,145.912140 179.454468,140.439667
	C174.879959,145.909744 171.155563,150.363297 167.118790,155.190369
	C162.518127,150.038040 158.674332,145.733322 153.794357,140.268173
	C149.043243,146.020111 145.277893,150.578644 140.878174,155.905182
	C136.103226,150.268250 132.356796,145.845505 127.683838,140.328979
	C123.180496,145.578506 119.664604,149.676956 116.148712,153.775421
	C115.762314,153.550079 115.375923,153.324738 114.989525,153.099396
	C114.989525,125.726082 114.989525,98.352776 115.503326,70.502365
	C149.907516,70.063904 183.797913,70.102524 217.688309,70.141151
z"/>
<path fill="#F7E6BB" opacity="1.000000" stroke="none"
	d="
M217.791687,69.876045
	C183.797913,70.102524 149.907516,70.063904 115.557556,70.039886
	C115.097992,70.054504 114.983330,69.590355 114.931458,69.357330
	C148.959457,69.082344 183.039352,69.040382 217.592239,69.033142
	C218.008514,69.248901 217.951782,69.429916 217.791687,69.876045
z"/>
<path fill="#F7E6BB" opacity="1.000000" stroke="none"
	d="
M217.545563,153.523727
	C217.454666,153.590820 217.435745,153.325333 217.435745,153.325333
	C217.435745,153.325333 217.636444,153.456635 217.545563,153.523727
z"/>
<path fill="#40596B" opacity="1.000000" stroke="none"
	d="
M366.979797,394.549377
	C367.051025,367.637512 387.517029,345.653900 411.429779,342.804291
	C429.345795,340.669250 443.671783,346.486145 455.926788,359.258789
	C465.199554,368.923279 468.757355,380.587555 469.794861,393.779053
	C469.254517,419.007782 451.015137,440.125580 426.712250,444.140564
	C409.105469,447.049316 394.207764,441.740356 381.906494,430.015686
	C372.259521,420.820831 366.808899,408.859955 366.979797,394.549377
M438.896362,393.491058
	C438.546387,391.368500 438.491760,389.143005 437.794067,387.141663
	C435.125702,379.487793 429.788239,374.435059 421.764709,373.163574
	C413.417999,371.840851 406.127655,374.543549 401.386475,381.756958
	C396.875519,388.620117 396.328705,396.057587 400.599640,403.397308
	C404.933868,410.845825 413.452881,415.045837 421.124573,413.678925
	C431.135498,411.895233 436.929230,405.578552 438.896362,393.491058
z"/>
<path fill="#40596B" opacity="1.000000" stroke="none"
	d="
M66.979736,394.544189
	C67.774879,380.651154 71.756882,368.329773 81.203674,358.458984
	C88.786331,350.535950 98.077873,345.167633 109.001266,343.039276
	C126.077354,339.712097 141.052826,344.729614 153.380295,356.230225
	C162.593033,364.824982 168.732101,375.693542 169.029526,388.965881
	C169.062241,390.425720 169.477280,391.877045 169.878677,393.717590
	C169.237122,418.833435 153.239304,438.062714 130.058945,443.724640
	C108.171829,449.070648 85.529716,439.045746 73.882866,419.058777
	C69.456841,411.463348 67.444412,403.533112 66.979736,394.544189
M101.478996,404.827148
	C102.242722,405.703766 102.963654,406.622375 103.776749,407.450500
	C112.600235,416.437500 125.807114,415.977570 134.096771,406.409454
	C141.765015,397.558594 140.172028,384.160431 130.591721,376.929291
	C122.919258,371.138184 112.299751,371.539856 104.847290,377.903046
	C97.317604,384.332184 95.914566,394.140656 101.478996,404.827148
z"/>
<path fill="#CDD4DE" opacity="1.000000" stroke="none"
	d="
M479.109650,269.008575
	C477.795624,269.587646 476.482758,270.669556 475.167358,270.672638
	C436.694122,270.762970 398.220581,270.723938 359.747223,270.787659
	C356.720001,270.792694 355.173950,270.147675 355.188995,266.665222
	C355.294830,242.182556 355.232758,217.699203 355.285797,193.216202
	C355.288086,192.167587 355.893463,191.120300 356.796753,190.306854
	C362.800537,194.076340 368.226562,197.609680 373.650238,201.146698
	C404.388916,221.192642 435.110901,241.264236 465.883820,261.257416
	C470.164276,264.038391 474.694855,266.434357 479.109650,269.008575
z"/>
<path fill="#F2F2F2" opacity="1.000000" stroke="none"
	d="
M479.077087,268.610687
	C474.694855,266.434357 470.164276,264.038391 465.883820,261.257416
	C435.110901,241.264236 404.388916,221.192642 373.650238,201.146698
	C368.226562,197.609680 362.800537,194.076340 357.199951,190.256210
	C383.854340,189.937866 410.685059,189.781082 437.514130,189.927612
	C449.500153,189.993073 458.390564,196.764709 461.861938,208.435211
	C467.772583,228.306610 473.335541,248.281418 479.077087,268.610687
z"/>
<path fill="#ABB2B9" opacity="1.000000" stroke="none"
	d="
M438.883179,393.911377
	C436.929230,405.578552 431.135498,411.895233 421.124573,413.678925
	C413.452881,415.045837 404.933868,410.845825 400.599640,403.397308
	C396.328705,396.057587 396.875519,388.620117 401.386475,381.756958
	C406.127655,374.543549 413.417999,371.840851 421.764709,373.163574
	C429.788239,374.435059 435.125702,379.487793 437.794067,387.141663
	C438.491760,389.143005 438.546387,391.368500 438.883179,393.911377
z"/>
<path fill="#ABB2B9" opacity="1.000000" stroke="none"
	d="
M101.282700,404.511108
	C95.914566,394.140656 97.317604,384.332184 104.847290,377.903046
	C112.299751,371.539856 122.919258,371.138184 130.591721,376.929291
	C140.172028,384.160431 141.765015,397.558594 134.096771,406.409454
	C125.807114,415.977570 112.600235,416.437500 103.776749,407.450500
	C102.963654,406.622375 102.242722,405.703766 101.282700,404.511108
z"/>
</svg>
